<svg id="Layer_1" data-name="Layer 1" xmlns="http://www.w3.org/2000/svg" width="50" height="50" viewBox="0 0 50 50"><defs><style>.cls-1{fill:#fff;}.cls-2,.cls-4{fill:#13bb70;}.cls-2{stroke:#13bb70;}.cls-3{fill:#bdefd1;}</style></defs><title>database</title><g id="img-4"><path class="cls-1" d="M50,50H0V0H50ZM3,22.27v10.2a1.58,1.58,0,0,0,.89,1.13,43.46,43.46,0,0,0,6,1.88,86,86,0,0,0,28,.42A55.4,55.4,0,0,0,45.6,34c.53-.16,1.27-.83,1.29-1.28.1-3.44,0-6.88,0-10.35A77.66,77.66,0,0,1,3,22.27ZM3,9.15v10.2a1.49,1.49,0,0,0,.8,1.07,39.71,39.71,0,0,0,5.53,1.81,81.55,81.55,0,0,0,22,1.23,49.43,49.43,0,0,0,13.49-2.25c2-.71,2.15-.91,2.15-3v-9c-10.5,4.57-31.82,4.55-44-.06ZM3,35.59c0,2.22.09,4.54,0,6.85a3,3,0,0,0,1.53,2.88,6.47,6.47,0,0,0,2,1A60.35,60.35,0,0,0,13.69,48a93.67,93.67,0,0,0,21.69.24,30.28,30.28,0,0,0,9.53-2.1c1.43-.64,2.3-1.44,2.14-3.27-.22-2.42,0-4.87,0-7.08a82.67,82.67,0,0,1-44-.16ZM27.33,11c2.41-.22,6.69-.53,10.94-1a17.71,17.71,0,0,0,7.56-2.36c1.61-1,1.66-2.37,0-3.3a16.15,16.15,0,0,0-4.5-1.76A77.35,77.35,0,0,0,11.2,2.2,23.39,23.39,0,0,0,5.43,4.1c-2.08,1-2.06,2.59,0,3.68a16.83,16.83,0,0,0,3.7,1.45C14.5,10.65,20,10.85,27.33,11Z"/><path class="cls-2" d="M3,22.27a77.69,77.69,0,0,0,44,.06c0,3.47,0,6.91,0,10.35,0,.45-.76,1.12-1.29,1.28A55.4,55.4,0,0,1,38,35.9a86,86,0,0,1-28-.42A43.46,43.46,0,0,1,4,33.6a1.58,1.58,0,0,1-.89-1.13C3,29.1,3,25.73,3,22.27Z"/><path class="cls-3" d="M3,9.15c12.15,4.61,33.47,4.63,44,0v9c0,2.12-.1,2.32-2.15,3a49.27,49.27,0,0,1-13.52,2.26,81.55,81.55,0,0,1-22-1.23,39.84,39.84,0,0,1-5.54-1.81A1.49,1.49,0,0,1,3,19.35C3,16,3,12.62,3,9.15Z"/><path class="cls-3" d="M3,35.59a82.66,82.66,0,0,0,44,.14c0,2.21-.17,4.66,0,7.08.16,1.83-.71,2.63-2.14,3.27a30.07,30.07,0,0,1-9.58,2.13A93.67,93.67,0,0,1,13.64,48a60.35,60.35,0,0,1-7.16-1.64,6.47,6.47,0,0,1-2-1A3,3,0,0,1,3,42.45C3.09,40.1,3,37.81,3,35.59Z"/><path class="cls-4" d="M27.33,11C20,10.85,14.47,10.65,9.11,9.23a16.83,16.83,0,0,1-3.7-1.45c-2-1.09-2-2.69,0-3.68a23.39,23.39,0,0,1,5.77-1.9,77.35,77.35,0,0,1,30.13.35,16.15,16.15,0,0,1,4.5,1.76c1.64.93,1.59,2.27,0,3.3A17.7,17.7,0,0,1,38.33,10C34.05,10.49,29.77,10.8,27.33,11Z"/></g></svg>