<svg id="Layer_1" data-name="Layer 1" xmlns="http://www.w3.org/2000/svg" width="41.18" height="43.8" viewBox="0 0 41.18 43.8"><defs><style>.cls-1{fill:#13bb70;}.cls-2{fill:#bdefd1;}</style></defs><title>performance</title><path class="cls-1" d="M35.55,2.31,33.25,0c.42.07.71.1,1,.16l4.85,1a.66.66,0,0,1,.53.34c.53,2,1,4,1.55,6.18L38.83,5.41C38,6.21,37.11,7,36.32,7.77,33.2,11,30.11,14.2,27,17.42A2.17,2.17,0,0,1,24,17.8l0,0q-4.53-2.91-9-5.86c-.22,0-.22-1-1.22,0-1.64,1.53-4,3-6.23,4.95a1.71,1.71,0,0,0-1,1.19,3.22,3.22,0,0,1-2.26,2.39A3.3,3.3,0,0,1,.15,18.23a3.21,3.21,0,0,1-.07-1.54,3.11,3.11,0,0,1,3.23-2.57,1.89,1.89,0,0,0,1.23-.42q4-3.13,8.09-6.23a2.29,2.29,0,0,1,3.25-.11L24.58,13c.43.28.14,1,2.14-1l8-8C35.72,3,36.72,3,35.55,2.31ZM3.3,18.55a1.15,1.15,0,1,0,0-2.3,1.15,1.15,0,0,0,0,2.3Z"/><path class="cls-2" d="M33.1,15.2a5.34,5.34,0,0,1,.8,0,14.55,14.55,0,0,0,4.27.07c1.14-.19,1.44-.14,1.44.5v28h-6.5Z"/><path class="cls-1" d="M17.48,43.77H11V17.41H17a.52.52,0,0,1,.54.5v25.3A1.76,1.76,0,0,1,17.48,43.77Z"/><path class="cls-2" d="M22.07,21.79h6c.42,0,.53.13.52.54V43.72h-6.5Z"/><path class="cls-2" d="M6.48,43.79H0V24.05a2.15,2.15,0,0,1,.8,0,6,6,0,0,0,2.53.31c2.57-.35,3.16-.67,3.15.21V43.8Z"/></svg>