<svg id="Layer_1" data-name="Layer 1" xmlns="http://www.w3.org/2000/svg" width="50.86" height="44.23" viewBox="0 0 50.86 44.23"><defs><style>.cls-1{fill:#bdefd1;}.cls-2{fill:#13bb70;}.cls-3{fill:#fff;}</style></defs><title>security</title><g id="img-3"><rect class="cls-1" width="50.86" height="44.23" rx="4.01"/><path class="cls-2" d="M6,7.34a2,2,0,1,0-2-2A2,2,0,0,0,6,7.34Z"/><path class="cls-2" d="M11.9,7.34a2,2,0,1,0-2-2A2,2,0,0,0,11.9,7.34Z"/><path class="cls-3" d="M25.55,35.92H18.4a2.74,2.74,0,0,1-2.76-2.13,3.44,3.44,0,0,1-.09-.9V24.51A3,3,0,0,1,16.67,22a.35.35,0,0,0,.14-.33,9,9,0,0,1,1.35-6.38,8.62,8.62,0,0,1,6.33-4.08,8.8,8.8,0,0,1,9,5,9.26,9.26,0,0,1,.81,5.41.44.44,0,0,0,.15.35,3.12,3.12,0,0,1,.88,3.64A12.36,12.36,0,0,0,35.42,32c.55,2.25-.76,3.89-2.8,3.89ZM31,21.44h0a6,6,0,0,0-2.44-6.12,5.41,5.41,0,0,0-6.22.11,6,6,0,0,0-2.27,6H31Zm-6.7,9.3h0v.91a1.22,1.22,0,0,0,2.44-.08h0V29.93a.46.46,0,0,1,.21-.39,2.53,2.53,0,1,0-2.84-4.19,2.6,2.6,0,0,0-.32.26,2.47,2.47,0,0,0-.15,3.49l.15.15a1.33,1.33,0,0,1,.52,1.31Z"/></g></svg>