<svg id="Layer_1" data-name="Layer 1" xmlns="http://www.w3.org/2000/svg" width="50.86" height="44.23" viewBox="0 0 50.86 44.23"><defs><style>.cls-1{fill:#bdefd1;}.cls-2{fill:#fff;}.cls-3{fill:none;stroke:#13bb70;stroke-width:4.01px;}</style></defs><title>website</title><g id="img-6"><rect class="cls-1" width="50.86" height="44.23" rx="4.01"/><path id="fill-white" class="cls-2" d="M4.66,11.05H46.2v27.3a1.36,1.36,0,0,1-1.34,1.35H6a1.34,1.34,0,0,1-1.33-1.35h0Z"/><path id="line-t" class="cls-3" d="M10.71,20.31H33.46"/><path id="line-b" class="cls-3" d="M10.71,27.08H25.39"/><path id="dot-l" class="cls-2" d="M6,7.34a2,2,0,1,0-2-2A2,2,0,0,0,6,7.34Z"/><path id="dot-r" class="cls-2" d="M11.9,7.34a2,2,0,1,0-2-2A2,2,0,0,0,11.9,7.34Z"/></g></svg>