<svg id="Layer_1" data-name="Layer 1" xmlns="http://www.w3.org/2000/svg" width="437.52" height="341.33" viewBox="0 0 437.52 341.33"><title>bg</title><path d="M56.2,272.84c-5.26,7.47-5.28,7.48.77,13.51q25,24.87,50,49.71c6.7,6.66,16.13,7.05,22.29.94s6.29-15.68-.34-22.33c-17.52-17.58-35.27-34.94-52.78-52.53-4.38-4.4-7-1.08-10.15,2-9.83-9.92-19.49-19.57-29-29.41a5.21,5.21,0,0,1-.75-4.55c1.33-3.39.23-5.39-2.69-6.95C26.78,219.6,20,216,13.32,212.3c-3.09-1.74-5.24-.68-7.49,1.54s-2.8,4.59-1.14,7.54c3.67,6.53,7.18,13.15,10.7,19.76,1.66,3.12,3.7,4.41,7.29,2.66a4.67,4.67,0,0,1,4.23.72C36.81,253.9,46.55,263.46,56.2,272.84Zm16.27-10.6A15.74,15.74,0,0,1,74,263.43q26.31,26.25,52.59,52.54c6.22,6.24,6.41,13.91.74,19.37-5.48,5.3-12.62,4.74-19-1.54C94.39,320,80.51,306.11,66.53,292.33c-4.11-4.05-8.47-7.86-12.77-11.82ZM57.76,272.36c-9.2-9.36-17.87-18.08-26.4-26.94-3.47-3.6-6.62-7.49-12.22-2.4-4.46-8.28-8.64-15.8-12.51-23.49-.47-.95.32-3.28,1.26-4,1.13-.86,3.41-1.41,4.58-.84,6.71,3.29,13.29,6.86,19.76,10.59,1,.57,2,3,1.62,3.66-2.37,3.6-.56,5.74,1.92,8.14,9.63,9.31,19.15,18.73,28.48,27.88Z" style="fill:#485b9c"/><path d="M303.51,241.54l-4.79,1.87c-.23-2-.55-3.56-.56-5.09,0-14.65-.1-29.3.08-43.95,0-1.75,1.5-3.49,2.3-5.23-3.84-2.84-2.44-7-2.29-10.59.18-4.65-1.42-6-6-5.82-12.42.52-11.87.24-14.28-12-1.7-8.69-5.07-17.06-7.88-25.5-.47-1.44-1.88-2.56-2.85-3.83l.1-.11c3.23,10.09,6.66,20.12,9.58,30.3.94,3.28.73,6.93.74,10.42q.07,38.73,0,77.47v5.43l1.23.12c.08-1.62.24-3.24.24-4.85,0-23.49.12-47-.09-70.48,0-4.61,1.34-6,5.92-5.9,11.77.25,11.74.06,11.73,11.95,0,22.49-.12,45,.1,67.48,0,4.46-1.27,5.49-5.66,5.47-37-.11-74,.07-110.94.14l-59.46.09a4.84,4.84,0,0,0-3.3,1h14.91q80,0,159.94.08c4.59,0,6.6-1.33,5.82-5.88C297.19,248.71,299,244.55,303.51,241.54Z" style="fill:#485b9c"/><path d="M194.85,61.07c8.41,6.22,6.71,15.27,6.41,23.81,0,.85-2.22,2.29-3.44,2.33-6.82.22-13.64,0-20.46.11-2.91.06-3.7-1.31-3.87-3.89-.6-9.09.17-17.66,8-23.89-6.24,3-8.78,8.21-8.85,15,0,4.29,1.07,9.66-1.06,12.54-1.91,2.59-7.54,2.4-11.5,3.54-35.88,10.29-61.71,40-63.5,77.17-.18,3.8-1.41,5.43-5.35,5.17a38.91,38.91,0,0,0-12.35,1c4.19,0,8.4.19,12.59-.06,3.54-.2,4.74,1.29,4.67,4.64-.11,5.92,0,11.85,0,17.78h1.35c0-3.78-.19-7.57,0-11.33.54-8.95.91-17.94,2.09-26.82.59-4.48,2.45-8.9,4.35-13.07,4.87-10.65,9-21.83,18.82-29.35,4.63-3.52,8.75-7.73,13.51-11.06,33-23.1,66.87-21.07,101.17-3,1.62.85,3.21,1.73,4.82,2.59l-.11.11c-3.59-2.51-6.89-5.75-10.84-7.36a236.86,236.86,0,0,0-24.93-8.37c-3-.86-4.19-1.9-4.09-4.94a112.38,112.38,0,0,0-.12-12.45C201.8,66.48,199.86,62.58,194.85,61.07Z" style="fill:#485b9c"/><path d="M135.79,213.14l-12.25,14.5-9.48-10.11,13.26-11.66c-12.56-9.33-31.9-.77-34.88,14.47-.38,1.94-1.08,4.16-.53,5.9,1.81,5.69-1.19,8.93-5,12.29-4.36,3.85-8.36,8.11-12.45,12.25a12.69,12.69,0,0,0-1.56,2.5l1,.95c1.13-1,2.32-1.87,3.38-2.9,5.24-5.11,10.6-10.12,15.57-15.49a8.05,8.05,0,0,0,1.64-5.92c-2.53-16.76,12-29.59,28.5-24.23L109.74,217l14.57,12.32,10.63-12.53c3.16,8.75,2.21,15.34-2.24,21.29-5.1,6.79-12,10.06-20.49,8.45-3.43-.66-5.68,0-7.91,2.35-5,5.4-10.18,10.72-15,16.64A28,28,0,0,0,93.12,263c4.27-4,8.27-8.22,12.72-12a9,9,0,0,1,6-1.84c10.26.91,18.45-2.52,23.9-11.25C140.49,230.32,140.52,222.31,135.79,213.14Z" style="fill:#485b9c"/><path d="M3.22,329.58c4.41-5.09,8.2-9.47,12.13-14l9.31,9.89c-4.12,3.38-8.71,7.12-13.39,10.95,8.08,6.88,20.9,5.69,28.5-1.46,6.3-5.91,8.51-13.21,7.62-21.73a7,7,0,0,1,1.7-4.95c3.43-3.67,7.24-7,10.9-10.43l-.79-1.16a10.06,10.06,0,0,0-2.64,1.1c-1.92,1.58-3.62,3.43-5.55,5-4.45,3.66-7,7.15-6.33,14.08,1.52,14.66-13.74,25.28-28.86,19.83L29.67,325.8,15.9,313.15l-10.76,12c-6.39-10,.69-24.9,12.28-27.82,2.48-.62,5.61-1,7.76,0,4.27,1.95,6.66.34,9.33-2.65s6-5.75,9-8.65c1.07-1,2-2.25,3-3.38l-.86-1.06a11.22,11.22,0,0,0-2.56,1.31q-3.35,3-6.48,6.22c-3.69,3.74-6.73,6.92-13.42,5.35-7.87-1.84-14.49,2.86-19,9.46C-1.09,311.62-1.34,319.93,3.22,329.58Z" style="fill:#485b9c"/><path d="M382.76,17.92A17.8,17.8,0,0,0,364.58,0a18.28,18.28,0,0,0-17.89,18.38,18.3,18.3,0,0,0,18.09,17.73A18,18,0,0,0,382.76,17.92Zm-33.38.5c-.06-8.69,7.29-16.19,15.73-16a15.81,15.81,0,0,1,15.29,15.4,15.83,15.83,0,0,1-15.73,16A15.66,15.66,0,0,1,349.38,18.42Z" style="fill:#485b9c"/><path d="M437.52,72.72a17.68,17.68,0,0,0-18.13-17.85,18,18,0,0,0-17.91,17.72,18.25,18.25,0,0,0,18,18.21A17.93,17.93,0,0,0,437.52,72.72ZM419.14,57.23a15.59,15.59,0,1,1-15.26,16C403.54,65.18,410.84,57.52,419.14,57.23Z" style="fill:#485b9c"/><path d="M323.75,72.86a17.61,17.61,0,0,0-17.95-18,18,18,0,1,0,17.95,18Zm-33.43-.15a15.72,15.72,0,0,1,16.12-15.46,15.55,15.55,0,0,1-.84,31.09A15.25,15.25,0,0,1,290.32,72.71Z" style="fill:#485b9c"/><path d="M233.18,18a13.67,13.67,0,1,0,27.34.06A13.67,13.67,0,1,0,233.18,18Zm2.32.35a11.42,11.42,0,1,1,22.84-.55,11.55,11.55,0,0,1-11.2,11.61A11.2,11.2,0,0,1,235.5,18.32Z" style="fill:#485b9c"/><path d="M351.12,191a13.71,13.71,0,0,0,27.42-.57,13.71,13.71,0,1,0-27.42.57Zm13.56,11.08a11.18,11.18,0,0,1-11.17-11.49A11.72,11.72,0,0,1,365,179.27a11.88,11.88,0,0,1,11.29,11.65A11.6,11.6,0,0,1,364.68,202.11Z" style="fill:#485b9c"/><path d="M159.4,182.13c5.58-6,5-14.48-1.39-20.11a14.54,14.54,0,0,0-20.12,1.48c-5.34,6.36-4.47,15.94,1.89,20.82A13.89,13.89,0,0,0,159.56,182a68.9,68.9,0,0,1-6.59,3.45c-5.18,2.06-10.5.38-14.22-4.23a12.5,12.5,0,0,1-1.07-14.86,13.63,13.63,0,0,1,14.23-6.05c5.19,1.22,9.72,6,9.66,11.29C161.53,175.1,160.17,178.61,159.4,182.13Z" style="fill:#485b9c"/><path d="M211.85,166.17c1.28-1,2.57-2,3.82-3a13.29,13.29,0,0,1,18.51,1,13.09,13.09,0,0,1,.06,17.75,13,13,0,0,1-18.4,1.22,41.72,41.72,0,0,1-3.45-3.58c3.14,8.19,14.67,10.48,21.58,4.23,4.54-4.13,5.52-9.37,4-15.05-1.63-6-6-9.15-11.93-9.78C219.9,158.25,215,160.72,211.85,166.17Z" style="fill:#485b9c"/><path d="M64.72,238.69c-5.69-1.42-5.72-5.61-5.64-10.17.18-9.79.06-19.59-.71-29.58a29.63,29.63,0,0,0-.62,4.25c0,9,.31,18-.13,26.93C57.35,235.47,59.35,238.15,64.72,238.69Z" style="fill:#485b9c"/><path d="M300.33,189c4,2.25,7.95,4.68,12.09,6.69a6,6,0,0,1,3.82,6.19c-.14,8.63-.34,17.26,0,25.87.23,5.31-1.1,9-6.51,10.55a12.77,12.77,0,0,0-2.93,1.81c8.74-1.47,10.36-3.28,10.37-11.63,0-9.12-.08-18.25,0-27.37,0-2.78-.61-4.63-3.42-5.8C309.24,193.45,304.82,191.17,300.33,189Z" style="fill:#485b9c"/><path d="M356.5,260.69c-.93-1.13-1.79-2.34-2.81-3.38-5.53-5.65-6.69-13.75-2.81-20,4.21-6.77,11.63-9.47,19.33-7.06,1.1.35,2.22.61,3.33.92-6.48-4.93-16.72-3.5-22.16,3.09-5.61,6.8-5.12,17.64,1.14,23.5A38.38,38.38,0,0,0,356.5,260.69Z" style="fill:#485b9c"/><path d="M429.85,119.07c5.16,4.83,7.23,10.63,5.12,17.52-2.07,6.72-6.94,10.79-13.75,11.15-4.06.21-8.24-1.71-12.36-2.67,7.51,5.78,16.41,5.38,23-1a16.78,16.78,0,0,0,1.81-22.24C432.77,120.61,431.14,120,429.85,119.07Z" style="fill:#485b9c"/><path d="M69.73,191.64l7.22-5v37.16h1V179.45C79.65,184.52,73.45,187.27,69.73,191.64Z" style="fill:#485b9c"/><path d="M240.82,74.2c2.12,1.3,4.14,3.43,6.39,3.71,3.28.39,5.08-2.32,4.92-5.45s-2.52-5.48-5.6-4.81c-2.18.47-3.94,2.83-5.89,4.35Zm6.28-5.37c1.15,1.85,2.46,3,2.34,4s-1.61,1.94-2.51,2.9c-1-1.07-2.51-2-2.87-3.27C243.86,71.78,245.6,70.54,247.1,68.83Z" style="fill:#485b9c"/><path d="M358.66,132.82c2,1.42,4.12,4,6.14,3.91,1.79,0,4.53-2.67,5-4.63a4.21,4.21,0,0,0-4.75-5.42c-2.24.28-4.25,2.44-6.36,3.77Zm2.1-1.38c1.86-1.11,3.06-2.4,4.11-2.29s1.82,1.68,2.72,2.6c-1,1-2,2.55-3.2,2.75C363.55,134.63,362.41,132.91,360.76,131.44Z" style="fill:#485b9c"/><path d="M424.75,191c0-3.54-2-5.9-5.12-5.32a7.89,7.89,0,0,0-5.07,4.73c-.9,3.19,1.51,5.36,4.76,5.59S424.5,194.27,424.75,191Zm-9.28-.31c1.8-1.25,2.91-2.62,3.91-2.55s2,1.54,3,2.39c-1,1.06-1.84,2.66-3,3C418.58,193.74,417.29,192.09,415.47,190.69Z" style="fill:#485b9c"/><path d="M413.48,246.61c2,1.41,4.1,3.95,6.09,3.9,1.76,0,4.39-2.72,4.95-4.7a4.21,4.21,0,0,0-4.7-5.45c-2.22.24-4.22,2.46-6.31,3.8Zm1.91-.89c1.9-1.48,3-3,4-2.94a3.79,3.79,0,0,1,2.73,2.57c.08.89-1.49,2.56-2.51,2.71S417.39,246.91,415.39,245.72Z" style="fill:#485b9c"/><path d="M355.48,81.7a17.5,17.5,0,0,0-.91-2.79c-2.64-5.08-2.35-10,1.47-14.23s8.42-4.83,13.58-3a18,18,0,0,0,1.92.48c-5.6-4-12-3.19-16.76,2.05C350.32,69.19,350.58,75.91,355.48,81.7Z" style="fill:#485b9c"/><path d="M373.33,231c5.08,4.69,9.49,10.11,7.15,17.33-1.39,4.31-5,7.89-7.63,11.79,6.61-2.28,8.86-7.61,9.28-13.9C382.6,239.17,379.23,233.66,373.33,231Z" style="fill:#485b9c"/><path d="M422.37,21.2c2.65-2.23,2.54-5-.07-6.57-1.43-.88-4.59-.5-6,.58-1,.78-1.16,4.14-.32,5.49,1.57,2.52,4.19,3.2,6.53.34-2.64.26-5.8,1.09-6.06-2.87-.07-1,2.24-3.21,3.3-3.12C423.84,15.42,422.58,18.65,422.37,21.2Z" style="fill:#485b9c"/><path d="M407.84,119.16c7.15-3.61,14.33-5.38,21.66-.47-3.81-4.79-10.66-5.89-17.27-2.61A35.09,35.09,0,0,0,407.84,119.16Z" style="fill:#485b9c"/><path d="M371.33,62c7,7.79,7.29,11.77,1.53,20.13C380.46,76.94,379.66,66.28,371.33,62Z" style="fill:#485b9c"/><path d="M309.49,19.52c-.83.55-1.67,1.55-2.48,1.53a6,6,0,0,1-3.89-1.27,3.5,3.5,0,0,1,0-3.5A6,6,0,0,1,307,15.12c.82,0,1.63,1,2.44,1.58-1.57-1-3.23-2.91-4.71-2.78-1.19.11-3,2.66-3,4.12s1.75,4.08,3,4.22C306.19,22.42,307.89,20.53,309.49,19.52Z" style="fill:#485b9c"/><path d="M267.25,131.38,255.4,115.21l.12-.11q5.93,8.07,11.84,16.16Z" style="fill:#485b9c"/><path d="M189.37,15.69a23.59,23.59,0,0,1,5.35.41c.42.13.64,3.2.3,3.34a39.69,39.69,0,0,1-6.17,1.63c2.34,2.42,5.07,2.4,6.56-.34a6.7,6.7,0,0,0-.67-6.07C193.25,12.8,190.64,12.52,189.37,15.69Z" style="fill:#485b9c"/><path d="M405.47,141.71c-2.33-7.1-3.59-14.12,1.54-20.67C401.23,126,400.64,134,405.47,141.71Z" style="fill:#485b9c"/><path d="M255.4,115.21l-13.23-10.9.1-.1,13.25,10.88Z" style="fill:#485b9c"/></svg>