<svg xmlns="http://www.w3.org/2000/svg" width="42.92" height="54.18" viewBox="0 0 42.92 54.18"><title>logo</title><g id="Layer_1" data-name="Layer 1"><path d="M37.53,0h4.13a1.16,1.16,0,0,1,1.26,1V37.43a1.15,1.15,0,0,1-1.26,1h-4a1.15,1.15,0,0,1-1.25-1V9.65l.33,1.7L25.48,32.5a1.29,1.29,0,0,1-1.15.61h-3a1.28,1.28,0,0,1-1.14-.6L8.91,11.87l.32-2.22V37.43a1.15,1.15,0,0,1-1.25,1H4a1.15,1.15,0,0,1-1.25-1V1A1.16,1.16,0,0,1,4,0H8.16A1.31,1.31,0,0,1,9.31.61L21.7,23.29a1.38,1.38,0,0,0,2.29,0L36.38.61A1.29,1.29,0,0,1,37.53,0Z" style="fill:#fe0854"/></g><g id="Layer_1_copy" data-name="Layer 1 copy"><path d="M34.75,0h4.14a1.16,1.16,0,0,1,1.25,1V37.43a1.15,1.15,0,0,1-1.25,1h-4a1.15,1.15,0,0,1-1.25-1V9.65l.33,1.7L22.71,32.5a1.29,1.29,0,0,1-1.15.61h-3a1.27,1.27,0,0,1-1.14-.6L6.14,11.87l.32-2.22V37.43a1.15,1.15,0,0,1-1.25,1h-4a1.15,1.15,0,0,1-1.25-1V1A1.16,1.16,0,0,1,1.25,0H5.39A1.29,1.29,0,0,1,6.53.61l12.4,22.68a1.38,1.38,0,0,0,2.29,0L33.61.61A1.29,1.29,0,0,1,34.75,0Z" style="fill:#fff"/><path d="M14.67,43.51h1.41V54.07H14.62V46.16l.07.46-2.63,6H11L8.4,46.77l.07-.61v7.91H7V43.51h1.4l3.13,7Z" style="fill:#fff"/><path d="M18.57,43.51h1.49V45H18.57Zm0,3h1.49v7.54H18.57Z" style="fill:#fff"/><path d="M22.34,43.51h1.49V54.07H22.34Zm.64,7.7,3.92-4.68h1.76L22.89,53Zm1.77-1.49,1-1L29,54.07H27.41Z" style="fill:#fff"/><path d="M30.61,53.6a2.15,2.15,0,0,1-.7-1.75,2.13,2.13,0,0,1,.64-1.68,2.89,2.89,0,0,1,1.93-.56h2.16l.11,1.19H32.49a1.32,1.32,0,0,0-.88.26,1,1,0,0,0-.29.79,1,1,0,0,0,.39.85,2,2,0,0,0,1.17.28,3.22,3.22,0,0,0,1.28-.19.6.6,0,0,0,.42-.56l.15,1.06a1.76,1.76,0,0,1-.48.5,2.09,2.09,0,0,1-.68.29,3.2,3.2,0,0,1-.85.1A3.24,3.24,0,0,1,30.61,53.6Zm4-4.31a1.56,1.56,0,0,0-.4-1.15,1.54,1.54,0,0,0-1.13-.41,3.07,3.07,0,0,0-.9.14,2.77,2.77,0,0,0-.77.38l-1.09-.74a2.9,2.9,0,0,1,1.14-.8A4.18,4.18,0,0,1,33,46.42a3.66,3.66,0,0,1,1.62.33,2.34,2.34,0,0,1,1,1A3.13,3.13,0,0,1,36,49.23v4.84H34.58Z" style="fill:#fff"/></g></svg>