<svg id="Capa_1" data-name="Capa 1" xmlns="http://www.w3.org/2000/svg" width="30" height="29.87" viewBox="0 0 30 29.87"><defs><style>.cls-1{fill:#cf2027;}</style></defs><title>backend</title><path class="cls-1" d="M5.25,3A2.25,2.25,0,1,0,7.5,5.25,2.25,2.25,0,0,0,5.25,3Zm0,3.5A1.25,1.25,0,1,1,6.5,5.25,1.25,1.25,0,0,1,5.25,6.5Z"/><circle class="cls-1" cx="25" cy="4.5" r="0.5"/><circle class="cls-1" cx="23" cy="4.5" r="0.5"/><circle class="cls-1" cx="26" cy="6" r="0.5"/><circle class="cls-1" cx="24" cy="6" r="0.5"/><circle class="cls-1" cx="21" cy="4.5" r="0.5"/><circle class="cls-1" cx="22" cy="6" r="0.5"/><circle class="cls-1" cx="19" cy="4.5" r="0.5"/><circle class="cls-1" cx="20" cy="6" r="0.5"/><circle class="cls-1" cx="17" cy="4.5" r="0.5"/><circle class="cls-1" cx="18" cy="6" r="0.5"/><path class="cls-1" d="M5.25,12.5A2.25,2.25,0,1,0,7.5,14.75,2.25,2.25,0,0,0,5.25,12.5Zm0,3.5A1.25,1.25,0,1,1,6.5,14.75,1.25,1.25,0,0,1,5.25,16Z"/><path class="cls-1" d="M5.25,22A2.25,2.25,0,1,0,7.5,24.25,2.25,2.25,0,0,0,5.25,22Zm0,3.5A1.25,1.25,0,1,1,6.5,24.25,1.25,1.25,0,0,1,5.25,25.5Z"/><path class="cls-1" d="M30,8.2V2.3A2.3,2.3,0,0,0,27.7,0H2.3A2.3,2.3,0,0,0,0,2.3V8.2A2.28,2.28,0,0,0,.89,10,2.28,2.28,0,0,0,0,11.8v5.9a2.28,2.28,0,0,0,.89,1.8A2.28,2.28,0,0,0,0,21.3v5.9a2.3,2.3,0,0,0,2.3,2.3H16.24a23.61,23.61,0,0,0,4.26.37c4.34,0,8.91-1.12,9.45-3.27a.54.54,0,0,0,.05-.22V12.5a.54.54,0,0,0-.05-.21,3.08,3.08,0,0,0-1.78-1.84A2.31,2.31,0,0,0,30,8.2ZM1,17.7V11.8a1.31,1.31,0,0,1,1.3-1.3H12.73a3,3,0,0,0-1.68,1.79.54.54,0,0,0-.05.21V19H2.3A1.3,1.3,0,0,1,1,17.7Zm11.31-3.07.07,0,.28.16.08.05.36.18.06,0,.34.14.11,0,.42.15h0l.42.14.12,0c.15,0,.29.09.44.12h0c.16,0,.32.08.49.12l.13,0,.43.09h.09a4.34,4.34,0,0,0,.52.09l.12,0,.44.07h.12l.54.07h.11l.46,0h.14l.55,0h2.55l.56,0h.13l.46,0H23l.54-.07h.13l.44-.07.12,0a4.34,4.34,0,0,0,.52-.09h.09l.43-.09.13,0c.17,0,.33-.07.49-.12h0c.15,0,.29-.08.44-.12l.11,0,.43-.14h0l.42-.15.1,0,.34-.14.07,0,.36-.18.08-.05.28-.16.06,0,.3-.21h0V16.9a.55.55,0,0,0,0,.18.37.37,0,0,1,0,.11.9.9,0,0,1,0,.16.5.5,0,0,1,0,.13l-.06.12-.07.11-.13.16-.06.06c-1.06,1-4.18,1.94-8.11,1.94s-7-.92-8.11-1.94l-.06-.07-.13-.15-.07-.12-.06-.1a.74.74,0,0,1,0-.14.9.9,0,0,1,0-.16.41.41,0,0,1,0-.11.61.61,0,0,0,0-.19V14.41h0ZM28.93,22l-.06.12-.07.11-.13.16-.06.06c-1.06,1-4.18,1.94-8.11,1.94s-7-.92-8.11-1.94l-.06-.07-.13-.15-.07-.12-.06-.1a.74.74,0,0,1,0-.14.7.7,0,0,1,0-.14v-.06a.17.17,0,0,0,0-.07.3.3,0,0,0,0-.13V18.91l.06,0,.2.14.17.11.28.16h0a13,13,0,0,0,4.06,1.23h0c.51.08,1,.14,1.57.18l.34,0,.33,0,.46,0h.26l.73,0,.73,0h.26l.45,0,.34,0,.34,0c.54,0,1.07-.1,1.58-.18h0a12,12,0,0,0,4.35-1.39l.16-.11.2-.13.07-.05V21.4a.55.55,0,0,0,0,.18.37.37,0,0,1,0,.11.9.9,0,0,1,0,.16A.5.5,0,0,1,28.93,22ZM2.3,28.5A1.3,1.3,0,0,1,1,27.2V21.3A1.31,1.31,0,0,1,2.3,20H11v6.88h.15l0,.05a.54.54,0,0,0,.05.11l.14.22.17.21.1.11a4.29,4.29,0,0,0,.68.55l0,0a6.15,6.15,0,0,0,.63.35ZM29,26.25s0,0,0,0c-.2,1.25-3.66,2.59-8.49,2.59a22.18,22.18,0,0,1-4.14-.37h0c-2.48-.47-3.86-1.27-4.25-1.94h0l0-.09a.6.6,0,0,1-.06-.19V23.41s0,0,.05,0l.2.14.17.11.28.16h0a13,13,0,0,0,4.06,1.23h0c.51.08,1,.14,1.57.18l.34,0,.33,0,.46,0h.26l.73,0,.73,0h.26l.45,0,.34,0,.34,0c.54,0,1.07-.1,1.58-.18h0a11.91,11.91,0,0,0,4.34-1.39l.17-.1.2-.14.07-.05v2.84Zm0-13.56c0,1.27-3.64,2.69-8.5,2.69S12,14,12,12.69a1.38,1.38,0,0,1,0-.2.82.82,0,0,1,.09-.19h0a2.66,2.66,0,0,1,1-.87l.07,0,.28-.14.36-.16.08,0a13.49,13.49,0,0,1,2.06-.6l.76-.15.2,0a24.07,24.07,0,0,1,7.09,0l.21,0,.75.15C27.44,11,29,11.86,29,12.69ZM29,8.2a1.3,1.3,0,0,1-1.3,1.3H25.38l-.09,0-1-.19h-.1a24.32,24.32,0,0,0-7.36,0h-.1l-1,.19-.09,0H2.3A1.31,1.31,0,0,1,1,8.2V2.3A1.3,1.3,0,0,1,2.3,1H27.7A1.3,1.3,0,0,1,29,2.3Z"/></svg>