<svg id="Layer_1" data-name="Layer 1" xmlns="http://www.w3.org/2000/svg" width="26.28" height="21.11" viewBox="0 0 26.28 21.11"><defs><style>.cls-1{fill:#fff;}</style></defs><title>car</title><path class="cls-1" d="M1.94,21.11a1.34,1.34,0,0,1-.68-1.34c0-2.41,0-4.83,0-7.24a18.82,18.82,0,0,1,.25-2,2.75,2.75,0,0,1-.95,0c-.24-.09-.57-.39-.58-.6A1.78,1.78,0,0,1,2,8c.51,0,.69-.19.83-.63C3.22,6,3.8,4.79,4.14,3.48,4.65,1.55,6.07.8,7.8.44A28,28,0,0,1,15.29.1a29.3,29.3,0,0,1,4.15.63A3.14,3.14,0,0,1,21.89,3c.47,1.49,1.07,2.94,1.58,4.42a.68.68,0,0,0,.76.54,1.82,1.82,0,0,1,2.05,1.89.56.56,0,0,1-.6.69c-.32,0-.65,0-.9,0A81.06,81.06,0,0,1,25,20.12c0,.33-.42.66-.64,1H20.38c-1.06-.64-.4-1.76-.72-2.64H6.5c0,.46,0,.9,0,1.34a1.32,1.32,0,0,1-.63,1.3ZM21.8,8.33c-.52-1.57-1-2.95-1.43-4.36a2.07,2.07,0,0,0-1.82-1.59,37.93,37.93,0,0,0-9.87-.23A3.14,3.14,0,0,0,5.53,4.84C5.26,6,4.85,7.1,4.46,8.35A40.88,40.88,0,0,0,21.8,8.33ZM5.48,14.66a10.1,10.1,0,0,0,1.64-.13c.28-.07.67-.34.72-.58a1,1,0,0,0-.42-.84,26.55,26.55,0,0,0-3.35-1.39A1.55,1.55,0,0,0,2.79,12a1.6,1.6,0,0,0,.84,2.52C4.27,14.59,4.93,14.61,5.48,14.66Zm15.09,0c.61,0,1.15-.05,1.68-.13,1.35-.19,1.57-.48,1.47-1.84-.06-.82-.38-1.22-1.16-1a30.51,30.51,0,0,0-3.87,1.53.87.87,0,0,0-.27.77.83.83,0,0,0,.55.51A13.53,13.53,0,0,0,20.57,14.66Z"/></svg>