<svg id="Layer_1" data-name="Layer 1" xmlns="http://www.w3.org/2000/svg" width="27.63" height="21.11" viewBox="0 0 27.63 21.11"><defs><style>.cls-1{fill:#fff;}</style></defs><title>comics</title><path class="cls-1" d="M27.63,5.48c-1,1.1-2,2.19-3,3.31l-8.16,9.29-2.65,3-3-3.35Q6.4,12.67,1.93,7.6C1.3,6.88.65,6.19,0,5.48V5.24C1.39,3.64,2.77,2,4.19.45A1.21,1.21,0,0,1,5,0c5.75,0,11.49,0,17.24,0a1.08,1.08,0,0,1,.65.24c.42.39.79.82,1.18,1.24l3.59,3.75ZM22.57,8.73l3.1-3.25L23.19,2.74V5.46H18.58A4.56,4.56,0,0,0,14.88,2a10.05,10.05,0,0,0-1.64-.19A6.13,6.13,0,0,0,8.72,3.28a1.12,1.12,0,0,0,.23,2,8.07,8.07,0,0,0,3.68,1c1.64,0,3.28,0,4.91.06a5.63,5.63,0,0,1,3.48,1C21.57,7.74,22,8.25,22.57,8.73ZM6.07,10.17c.72.81,1.32,1.5,1.94,2.15.07.08.31,0,.46,0a5.19,5.19,0,0,1,2.95,0c.8.27,1.52.81,2.33,1a6.38,6.38,0,0,0,5-.64c.6-.36.61-.89,0-1.17a6.86,6.86,0,0,0-2.2-.64c-2.6-.24-5.2-.39-7.8-.57Zm7.75,8.74,3-3.4a11.14,11.14,0,0,1-6-.17Zm-7-17.25a8.85,8.85,0,0,1-1,0,1.38,1.38,0,0,0-1.36.59c-.74,1-1.55,1.89-2.31,2.85a.47.47,0,0,0,0,.46c.53.53,1.09,1,1.57,1.47C3.44,4.6,4.84,3,6.77,1.66Zm11.77.14.93,1.14L20.4,1.8Z"/></svg>