<svg id="Layer_1_copy" data-name="Layer 1 copy" xmlns="http://www.w3.org/2000/svg" width="30" height="32.63" viewBox="0 0 30 32.63"><defs><style>.cls-1{fill:#cf2027;}</style></defs><title>frontend</title><path class="cls-1" d="M20.37,26.82l-3.63-2.09,10.92-6.3a8.08,8.08,0,0,0,1.18-.83,6.41,6.41,0,0,1-8.47,9.22Zm-.88,1.52A9.16,9.16,0,0,0,20.8,29,6.42,6.42,0,0,1,8.57,26.22V13.63l5.55,3.19v7.91a.88.88,0,0,0,.43.76l4.94,2.85ZM6.43,27.68a6.43,6.43,0,0,1-5.56-3.2,6.42,6.42,0,0,1,2.34-8.76l3.63-2.09V26.22A8.66,8.66,0,0,0,7,27.66l-.54,0ZM20.55,12.11,15,15.31l-6.85-4a.92.92,0,0,0-.88,0L2.34,14.21A8,8,0,0,0,1.16,15,6.35,6.35,0,0,1,.87,8.16,6.41,6.41,0,0,1,9.63,5.81ZM15,0a6.43,6.43,0,0,1,6.42,6.41V10.6L10.49,4.3a9.16,9.16,0,0,0-1.31-.61A6.37,6.37,0,0,1,15,0ZM29.13,8.16a6.41,6.41,0,0,1-2.35,8.76l-10.91,6.3v-6.4l6.85-4a.88.88,0,0,0,.44-.76V6.41A8.54,8.54,0,0,0,23,5,6.43,6.43,0,0,1,29.13,8.16Z"/></svg>