<svg id="Layer_1" data-name="Layer 1" xmlns="http://www.w3.org/2000/svg" width="14.18" height="21.11" viewBox="0 0 14.18 21.11"><defs><style>.cls-1{fill:#fff;}</style></defs><title>game</title><path class="cls-1" d="M1.6,21.11A2,2,0,0,1,0,18.76V2.35A2,2,0,0,1,1.6,0h11a2,2,0,0,1,1.6,2.35V18.76a2,2,0,0,1-1.6,2.35ZM.76,10.52v8.54a1.17,1.17,0,0,0,1.3,1.3H12.14a1.16,1.16,0,0,0,1.28-1.28q0-8.52,0-17A1.16,1.16,0,0,0,12.12.76c-3.35,0-6.69,0-10,0A1.17,1.17,0,0,0,.76,2.08Z"/><path class="cls-1" d="M7.07,10H2.57C2,10,2,9.89,2,9.33c0-2.27,0-4.53,0-6.8,0-.45.16-.6.61-.6q4.55,0,9.09,0c.44,0,.61.15.6.6q0,3.42,0,6.84c0,.42-.15.59-.58.59C10.13,9.94,8.6,10,7.07,10Zm-4.34-.8H9.36L6.43,6.22C6.22,6,6,5.78,6.28,5.51s.49,0,.68.17c1,1,2.06,2,3,3.06a1.44,1.44,0,0,0,1.45.42V2.71H4L5.17,3.89c.18.18.3.38.07.6s-.42.12-.6-.07L3.18,3c-.12-.11-.25-.2-.45-.36Z"/><path class="cls-1" d="M5,12.63c1,.12,1.13.29,1.12,1s-.2.82-1.07.92c-.29,1-.5,1.23-1.19,1.16s-.73-.32-.8-1.12C2,14.36,1.89,14.25,2,13.43c0-.54.26-.7,1.1-.8.16-1,.31-1.13,1.13-1.09C4.76,11.56,5,11.81,5,12.63Zm-.79-.28-.15-.1c-.07.11-.2.22-.21.34,0,.8,0,.81-.83.84-.26,0-.39.06-.28.38h.56c.39,0,.58.18.55.58a.86.86,0,0,0,0,.32,1.37,1.37,0,0,0,.2.29c.06-.09.15-.18.16-.27.08-.87.08-.87,1-.92l.15,0c.1-.29,0-.37-.29-.35-.87.09-.85-.23-.82-.85C4.23,12.51,4.22,12.43,4.22,12.35Z"/><path class="cls-1" d="M12.27,12.71a.75.75,0,0,1-.81.72.72.72,0,0,1-.7-.77.75.75,0,0,1,.8-.73A.78.78,0,0,1,12.27,12.71Z"/><path class="cls-1" d="M10.34,14.64a.78.78,0,0,1-.76.74.8.8,0,0,1-.75-.8.73.73,0,0,1,.81-.71A.72.72,0,0,1,10.34,14.64Z"/><path class="cls-1" d="M3.85,18.25a1.24,1.24,0,0,1,0-.51c.06-.16.23-.27.35-.4.13.13.34.24.37.38a3.49,3.49,0,0,1,0,1.07c0,.14-.24.25-.37.37a1.86,1.86,0,0,1-.35-.4A1.73,1.73,0,0,1,3.85,18.25Z"/><path class="cls-1" d="M6.12,18.27a2,2,0,0,1,0,.55c0,.13-.2.33-.3.32s-.38-.16-.39-.27a5.9,5.9,0,0,1,0-1.26c0-.1.24-.25.36-.25a.48.48,0,0,1,.32.3,2.06,2.06,0,0,1,0,.61Z"/><path class="cls-1" d="M6.94,18.21a1.39,1.39,0,0,1,0-.5c.06-.15.22-.34.33-.35a.48.48,0,0,1,.38.3,4.46,4.46,0,0,1,0,1.21c0,.11-.25.26-.4.27S7,19,7,18.82A2.47,2.47,0,0,1,6.94,18.21Z"/><path class="cls-1" d="M8.45,18.22a1.68,1.68,0,0,1,0-.55c0-.13.22-.32.32-.31s.37.17.39.29a5.44,5.44,0,0,1,0,1.21.46.46,0,0,1-.35.28.58.58,0,0,1-.36-.31A1.76,1.76,0,0,1,8.45,18.22Z"/><path class="cls-1" d="M10.72,18.29a1.73,1.73,0,0,1,0,.51c-.06.14-.21.34-.33.34a.5.5,0,0,1-.38-.29,5.44,5.44,0,0,1,0-1.21c0-.11.25-.26.39-.27s.27.18.3.32a2,2,0,0,1,0,.6Z"/></svg>