<svg id="Layer_1" data-name="Layer 1" xmlns="http://www.w3.org/2000/svg" width="20" height="15.25" viewBox="0 0 20 15.25"><defs><style>.cls-1{fill:#fff;}</style></defs><title>mail</title><path class="cls-1" d="M17.88,15.25H2.12a5.37,5.37,0,0,1-1.29-.48A2.15,2.15,0,0,1,0,12.91v-6C0,5.33,0,3.79,0,2.25A2.1,2.1,0,0,1,2.29,0l15.6,0a1.94,1.94,0,0,1,2,1.45c0,.13.09.25.13.37V13.37A2.18,2.18,0,0,1,17.88,15.25ZM1.57,2.55c0,3.54,0,7,0,10.44,0,.5.19.65.71.65H17.61c.68,0,.82-.13.82-.82q0-4.85,0-9.69a2.23,2.23,0,0,0,0-.32L18.16,3,11.28,9.33a1.88,1.88,0,0,1-2.71,0L1.92,2.87Zm1.3-1L3,1.71,9.64,8.16c.25.23.43.15.64,0l6.85-6.27c.06-.06.12-.14.23-.27Z"/></svg>