<svg id="Layer_1" data-name="Layer 1" xmlns="http://www.w3.org/2000/svg" width="28" height="25" viewBox="0 0 28 25"><title>menu</title><path d="M0,13V12c.66-2,1.26-2.45,3.1-2.45H24.9c1.84,0,2.44.48,3.1,2.45v1c-.66,2-1.26,2.45-3.1,2.45H3.1C1.26,15.47.66,15,0,13Z" style="fill:#fff"/><path d="M0,3.54v-1C.67.48,1.28,0,3.13,0H24.87C26.73,0,27.32.47,28,2.5v1c-.68,1.93-1.27,2.39-3.07,2.39H3.07C1.27,5.93.68,5.47,0,3.54Z" style="fill:#fff"/><path d="M0,22.5v-1c.68-1.93,1.27-2.39,3.07-2.39H24.93c1.8,0,2.39.46,3.07,2.39v1c-.68,2-1.27,2.5-3.13,2.5H3.13C1.28,25,.67,24.52,0,22.5Z" style="fill:#fff"/></svg>