<svg id="Layer_1" data-name="Layer 1" xmlns="http://www.w3.org/2000/svg" width="30" height="28.76" viewBox="0 0 30 28.76"><defs><style>.cls-1{fill:#cf2027;}</style></defs><title>programing-language</title><path class="cls-1" d="M16.24,8.76V7.52H8.76c0-.11,0-.19,0-.26,0-1.45,0-2.91,0-4.36a1.94,1.94,0,0,1,.87-1.69A5.33,5.33,0,0,1,12,.28a16.34,16.34,0,0,1,6.57.11,4.52,4.52,0,0,1,2.12,1,1.78,1.78,0,0,1,.6,1.36q0,3.86,0,7.7a3.31,3.31,0,0,1-.37,1.78A2.91,2.91,0,0,1,19,13.54a11.67,11.67,0,0,1-2.83.21H12.94A5.45,5.45,0,0,0,7.78,17.5a5.91,5.91,0,0,0-.28,1.86v1.9H7.25c-1.24,0-2.48,0-3.71,0A3,3,0,0,1,1,19.67,6.8,6.8,0,0,1,.13,17a14.48,14.48,0,0,1,.11-4.6A5.37,5.37,0,0,1,1.46,9.71a2.9,2.9,0,0,1,2.32-1c1.45,0,2.89,0,4.33,0h8.13ZM11.25,5a1.25,1.25,0,0,0,0-2.49,1.25,1.25,0,0,0,0,2.49Z"/><path class="cls-1" d="M13.76,20v1.24h7.49v.29c0,1.43,0,2.85,0,4.28a2,2,0,0,1-.9,1.73,5.82,5.82,0,0,1-2.63,1,16.71,16.71,0,0,1-5.9-.08,5,5,0,0,1-2.42-1.09,1.84,1.84,0,0,1-.67-1.48c0-2.18,0-4.37,0-6.55a4.17,4.17,0,0,1,2.12-3.78A4.24,4.24,0,0,1,13.1,15h4.16a7.24,7.24,0,0,0,3-.62,3.67,3.67,0,0,0,2.23-3.45c0-1,0-2,0-3V7.51h.24c1.25,0,2.5,0,3.75,0A2.89,2.89,0,0,1,29,9.05a6.46,6.46,0,0,1,.85,2.64,13.89,13.89,0,0,1-.19,5.14,4.73,4.73,0,0,1-1.32,2.44,2.85,2.85,0,0,1-2.05.75c-1,0-2,0-3.07,0H13.76ZM20,25a1.24,1.24,0,0,0-1.23-1.25A1.25,1.25,0,1,0,20,25Z"/></svg>