<svg xmlns="http://www.w3.org/2000/svg" width="50.01" height="45.05" viewBox="0 0 50.01 45.05"><defs><style>.cls-1{fill:#565656;}.cls-2{fill:#52575f;}</style></defs><title>projects</title><g id="Layer_5" data-name="Layer 5"><path id="center" class="cls-1" d="M27.49,28.49h-5c0-.77,0-1.54,0-2.3,0-.05.16-.13.24-.13.6,0,1.19,0,1.78,0h2.66c.23,0,.32.07.31.32C27.48,27.06,27.49,27.76,27.49,28.49Z"/><path class="cls-1" d="M50,27.31v.56c0,4.26,0,8.51,0,12.76A4.53,4.53,0,0,1,46.22,45a8.27,8.27,0,0,1-.86,0H4.6A4.48,4.48,0,0,1,0,40.47V27.85c0-.57,0-.57.56-.57H18.18c.44,0,.55.12.54.56,0,1.28,0,2.57,0,3.86a1.79,1.79,0,0,0,2.05,1.83,41.86,41.86,0,0,1,8.45,0,1.79,1.79,0,0,0,2.11-1.82c0-1.32,0-2.64,0-4,0-.36.11-.47.46-.47H49.56Z"/></g><g id="Layer_3" data-name="Layer 3"><path class="cls-2" d="M14.35,7.16V2.66A2.65,2.65,0,0,1,17,0H33.1a2.61,2.61,0,0,1,2.58,2.62c0,1.36,0,2.72,0,4.08,0,.37.12.46.47.46,3.06,0,6.13,0,9.19,0A4.53,4.53,0,0,1,50,10.78a2,2,0,0,1,0,.34V22a2.06,2.06,0,0,1,0,.21H0c0-.14,0-.29,0-.44V11.54A4.5,4.5,0,0,1,4.37,7.16h10Zm17.89,0c0-1.15,0-2.22,0-3.29,0-.32-.1-.42-.42-.42-.9,0-1.8,0-2.7,0H18.43c-.76,0-.62,0-.64,1.1,0,.55,0,1.09,0,1.63,0,1-.11,1,.57,1H32.24Z"/></g></svg>