<svg id="Layer_1" data-name="Layer 1" xmlns="http://www.w3.org/2000/svg" width="12.26" height="21.11" viewBox="0 0 12.26 21.11"><defs><style>.cls-1{fill:#fff;}</style></defs><title>science</title><path class="cls-1" d="M6.07,21.08c-1.4,0-2.81-.08-4.2,0A1.68,1.68,0,0,1,.22,18.58c1.17-2.28,2.17-4.66,3.27-7a3.78,3.78,0,0,0,.42-1.95c0-.49,0-1,0-1.48a2.12,2.12,0,0,0-.28-.59c-.09-.19-.25-.42-.2-.58a.65.65,0,0,1,.47-.38c1.46,0,2.93,0,4.39,0,.5,0,.63.49.34.91a2.67,2.67,0,0,0-.25.63s0,0,0,.07a7.93,7.93,0,0,0,1,4.61c1,1.9,1.81,3.87,2.7,5.81a1.58,1.58,0,0,1-1.58,2.43C9,21.09,7.53,21.08,6.07,21.08Zm3.37-6.37c-1.15-2.22-2.37-4.38-1.73-7H4.65c0,.63,0,1.23,0,1.82A4.45,4.45,0,0,1,4.13,12c-.58,1.17-1.1,2.38-1.65,3.57C5,16.62,7.1,15.23,9.44,14.71Z"/><path class="cls-1" d="M10.59,1.78A1.81,1.81,0,1,1,7,1.8a1.81,1.81,0,0,1,3.62,0ZM8.81.5A1.27,1.27,0,0,0,7.47,1.8a1.31,1.31,0,0,0,2.62.05A1.28,1.28,0,0,0,8.81.5Z"/><path class="cls-1" d="M6.28,5.87A1.34,1.34,0,0,1,5,4.53,1.38,1.38,0,0,1,6.33,3.16,1.35,1.35,0,0,1,7.65,4.58,1.31,1.31,0,0,1,6.28,5.87Zm0-.49a.84.84,0,0,0,.85-.86.87.87,0,0,0-.86-.86.88.88,0,0,0-.86.87A.86.86,0,0,0,6.31,5.38Z"/><path class="cls-1" d="M6,1.82a.89.89,0,0,1-.88.85.84.84,0,0,1-.87-.85.88.88,0,0,1,.9-.89A.91.91,0,0,1,6,1.82Zm-.9.76c.25-.34.53-.54.52-.74s-.29-.38-.46-.58c-.2.18-.52.34-.57.55S4.84,2.23,5.09,2.58Z"/></svg>