<svg id="Layer_1_copy" data-name="Layer 1 copy" xmlns="http://www.w3.org/2000/svg" width="48.54" height="47.47" viewBox="0 0 48.54 47.47"><defs><style>.cls-1{fill:#52575f;}</style></defs><title>setting</title><path class="cls-1" d="M39.63,43.59c-1.83-.71-3.57-1.45-5.36-2.06a4.59,4.59,0,0,0-2,0c-1,.12-1.43.8-1.74,1.72-.49,1.41-1.13,2.77-1.7,4.15a1.6,1.6,0,0,1-1.74,1.1,37.55,37.55,0,0,0-4,0,1.63,1.63,0,0,1-1.75-1.1l-2-4.47A2.7,2.7,0,0,0,16,41.49c-1.54.64-3.1,1.25-4.63,1.92a1.62,1.62,0,0,1-2-.44C8.44,42,7.53,41.14,6.57,40.3a1.62,1.62,0,0,1-.49-2L8,33.65a2.6,2.6,0,0,0-1.41-3.3c-1.48-.56-2.95-1.16-4.43-1.72A1.83,1.83,0,0,1,.75,26.54a16,16,0,0,0,0-3.17A2.07,2.07,0,0,1,2.32,21c1.28-.48,2.52-1,3.79-1.56,1.93-.76,2.45-2.1,1.58-4a41.5,41.5,0,0,1-1.76-4.26,1.9,1.9,0,0,1,.38-1.58,25.6,25.6,0,0,1,3-2.95A2,2,0,0,1,11,6.26c1.68.52,3.31,1.19,5,1.83a2.72,2.72,0,0,0,3.44-1.44c.64-1.54,1.2-3.12,2-4.6a2.33,2.33,0,0,1,1.61-1c1.26-.14,2.56,0,3.83-.06a1.77,1.77,0,0,1,1.94,1.22q1,2.25,1.94,4.48A2.77,2.77,0,0,0,34,8.07l4.63-1.93a1.7,1.7,0,0,1,2.13.48,33.94,33.94,0,0,0,2.66,2.57,1.65,1.65,0,0,1,.48,2.11C43.26,12.85,42.64,14.4,42,16a2.64,2.64,0,0,0,1.38,3.22L48.07,21a1.63,1.63,0,0,1,1.19,1.81,32.62,32.62,0,0,0,0,3.7,1.67,1.67,0,0,1-1.16,1.84c-1.58.66-3.15,1.34-4.73,2a2.56,2.56,0,0,0-1.28,3.23c.67,1.53,1.32,3.07,2,4.6A1.42,1.42,0,0,1,43.7,40c-1,.91-2,1.91-3,2.84A6.85,6.85,0,0,1,39.63,43.59ZM25,15.28a9.65,9.65,0,0,0-9.74,9.45,9.71,9.71,0,0,0,19.42.07A9.65,9.65,0,0,0,25,15.28Z" transform="translate(-0.73 -1)"/></svg>