<svg id="Layer_1" data-name="Layer 1" xmlns="http://www.w3.org/2000/svg" width="42.45" height="48.22" viewBox="0 0 42.45 48.22"><defs><style>.cls-1{fill:#52575f;}</style></defs><title>skills</title><path class="cls-1" d="M45.7.64c.08,3,.31,5.85-1.14,8.51-.91,1.67-1.5,3.52-2.28,5.38l1.5.14c.1.52.25,1.05.3,1.58.8,8.39-.9,15.85-7.87,21.38a1.89,1.89,0,0,0-.55,1.31c0,2.85,0,5.7,0,8.55v1.29H17v-6.9c-2.34,0-4.52-.05-6.7,0-.9,0-1.22-.22-1.19-1.16.06-2.48,0-5,0-7.44V32L3.31,30.67c.5-.91.94-1.75,1.4-2.57C5.87,26,7.05,24,8.17,21.9a3.51,3.51,0,0,0,.28-1.45c.08-1.55.13-3.1.13-4.65,0-.94.38-1.36,1.34-1.2a5.2,5.2,0,0,0,1-.06,5.86,5.86,0,0,0-.83-1.63A7,7,0,0,1,8.23,4.64a7.11,7.11,0,0,1,7.38-4,7.22,7.22,0,0,1,5.9,6.12c0,.07,0,.14.15.51l1.81-6.18,3.8,1.61,3.85,1.66L28.85,5.56c.55,1.22,1.16,2.33,1.57,3.5.47,1.32,1.48.85,2.32.83a1.38,1.38,0,0,0,1.39-1.45c.06-1,0-2.07,0-3.23l-1.49-.15V.63h4.43V5l-1.47.18V7c0,3.24-.69,4.06-4,4.55.44,1,.85,1.88,1.3,2.79.06.13.28.2.44.27a.91.91,0,0,0,.33,0c3,.15,3,.15,4.15-2.57,1-2.21,1.93-4.4,2.82-6.64a5,5,0,0,1,1.94-2.46C43.6,2.27,44.55,1.5,45.7.64ZM10,16.17c0,1.59,0,3.13,0,4.67a2.67,2.67,0,0,1-.22,1.23c-1.12,2.08-2.3,4.14-3.45,6.2l-.75,1.4,5.09,1.19v9.57h7.8v6.92H34.16V46.19c0-2.59,0-5.18,0-7.78A2.13,2.13,0,0,1,35,36.57a30.52,30.52,0,0,0,4.18-4.25C42.52,28,43,22.9,42.69,17.66c0-.5-.08-1-.13-1.49Zm7-1.61c-.47-1.6.59-2.35,1.57-3.28a5.48,5.48,0,0,0-.1-7.7,5.67,5.67,0,0,0-7.82,0,5.47,5.47,0,0,0-.05,7.7c1,.92,2,1.65,1.55,3.25h1.68c0-1.37,0-2.7,0-4a2,2,0,0,0-.58-1.18A2.22,2.22,0,0,1,13,6,2.16,2.16,0,0,1,16.2,6a2.18,2.18,0,0,1-.33,3.38c-.23.2-.54.48-.55.74-.05,1.46,0,2.93,0,4.44Zm21.38,0a4.85,4.85,0,0,1,.62,0,1.75,1.75,0,0,0,2.27-1.41c.48-1.47,1.17-2.88,1.76-4.31.35-.84.67-1.69,1-2.57l-1.76-.89ZM29.13,9.79c-.65-1.44-1.3-2.8-1.88-4.19a4.63,4.63,0,0,1-.12-1.36L24.44,3.1l-.73,2.48a6.29,6.29,0,0,1,.9.9,11.1,11.1,0,0,1,.62,1.3c1.07,2.33,1.07,2.33,3.66,2.11A1.07,1.07,0,0,0,29.13,9.79Zm-7.46,4.77c-.2-2.23.25-4.11,2.87-4.7l-1-2a3.46,3.46,0,0,0-2.65,2.33A7.35,7.35,0,0,1,19,12.84a1.43,1.43,0,0,0-.49,1.72Zm5.39-3c.9,3.09,1.33,3.4,4.13,3C30.42,11.54,29.86,11.13,27.06,11.52Zm-.39,3.09a24.65,24.65,0,0,0-1.08-2.36c-.21-.35-.7-.83-.95-.77a2,2,0,0,0-1.34.88,7.34,7.34,0,0,0-.25,2.15,4.6,4.6,0,0,0,.57.09Zm9-11V2.06H34.13V3.63ZM15.8,7.46c-.63-.37-1-.75-1.27-.69s-.53.53-.79.82c.29.25.57.69.88.72S15.21,7.9,15.8,7.46Z" transform="translate(-3.31 -0.56)"/><path class="cls-1" d="M10,16.17H42.56c0,.49.1,1,.13,1.49C43,22.9,42.52,28,39.2,32.32A30.52,30.52,0,0,1,35,36.57a2.13,2.13,0,0,0-.87,1.84c0,2.6,0,5.19,0,7.78v1.16H18.47V40.43h-7.8V30.86L5.58,29.67l.75-1.4c1.15-2.06,2.33-4.12,3.45-6.2A2.67,2.67,0,0,0,10,20.84C10,19.3,10,17.76,10,16.17Zm9.87,2.44c-.78-.14-1.32-.18-1.56.77a2,2,0,0,1-2.12,1.46A2,2,0,0,1,14,19.41c-.29-1-.84-1-1.61-.75a3.94,3.94,0,0,0,3.87,3.7A3.87,3.87,0,0,0,19.88,18.61Z" transform="translate(-3.31 -0.56)"/><path class="cls-1" d="M17,14.56h-1.7c0-1.51,0-3,0-4.44,0-.26.32-.54.55-.74A2.18,2.18,0,0,0,16.2,6,2.16,2.16,0,0,0,13,6a2.22,2.22,0,0,0,.26,3.4,2,2,0,0,1,.58,1.18c.07,1.31,0,2.64,0,4H12.14c.49-1.6-.57-2.33-1.55-3.25a5.47,5.47,0,0,1,.05-7.7,5.67,5.67,0,0,1,7.82,0,5.48,5.48,0,0,1,.1,7.7C17.58,12.21,16.52,13,17,14.56Z" transform="translate(-3.31 -0.56)"/><path class="cls-1" d="M38.37,14.56l3.91-9.13L44,6.32c-.35.88-.67,1.73-1,2.57-.59,1.43-1.28,2.84-1.76,4.31A1.75,1.75,0,0,1,39,14.61,4.85,4.85,0,0,0,38.37,14.56Z" transform="translate(-3.31 -0.56)"/><path class="cls-1" d="M29.13,9.79a1.07,1.07,0,0,1-.24.1c-2.59.22-2.59.22-3.66-2.11a11.1,11.1,0,0,0-.62-1.3,6.29,6.29,0,0,0-.9-.9l.73-2.48,2.69,1.14a4.63,4.63,0,0,0,.12,1.36C27.83,7,28.48,8.35,29.13,9.79Z" transform="translate(-3.31 -0.56)"/><path class="cls-1" d="M27.06,11.52c2.8-.39,3.36,0,4.13,3C28.39,14.92,28,14.61,27.06,11.52Z" transform="translate(-3.31 -0.56)"/><path class="cls-1" d="M35.64,3.63H34.13V2.06h1.51Z" transform="translate(-3.31 -0.56)"/></svg>