<svg id="Layer_1" data-name="Layer 1" xmlns="http://www.w3.org/2000/svg" width="11.66" height="21.11" viewBox="0 0 11.66 21.11"><defs><style>.cls-1{fill:#fff;}</style></defs><title>technology</title><path class="cls-1" d="M0,10.51V2.34A2.3,2.3,0,0,1,1.62.05,2.71,2.71,0,0,1,2.37,0H9.23a2.3,2.3,0,0,1,2.4,2.39V18.65a2.31,2.31,0,0,1-2.41,2.4H2.4A2.31,2.31,0,0,1,0,18.62Zm10.66-.68V3.08a.87.87,0,0,0-1-1H2a.88.88,0,0,0-1,1V16.56a.88.88,0,0,0,1,1H9.6c.73,0,1-.31,1-1ZM5.81,20.28a1,1,0,0,0,1-1,1,1,0,0,0-1-1,1,1,0,0,0-1,1A1,1,0,0,0,5.81,20.28Zm0-19.23H7.48a.51.51,0,0,0,.18,0A.31.31,0,0,0,7.8.86S7.71.76,7.66.73s-.11,0-.16,0H4.09a.46.46,0,0,0-.17,0c-.06,0-.12.09-.12.14A.2.2,0,0,0,3.9,1a.42.42,0,0,0,.2,0Z" transform="translate(0.03 0.06)"/></svg>