<svg id="Layer_1_copy" data-name="Layer 1 copy" xmlns="http://www.w3.org/2000/svg" width="28.64" height="28.64" viewBox="0 0 28.64 28.64"><defs><style>.cls-1{fill:#cf2027;}</style></defs><title>webservice</title><path class="cls-1" d="M14.33,0h11.6a2.37,2.37,0,0,1,2.71,2.69V26A2.36,2.36,0,0,1,26,28.64H2.58A2.34,2.34,0,0,1,0,26.08V2.62A2.36,2.36,0,0,1,2.66,0ZM.93,5.54c0,.27-.05.47-.05.66q0,9.9,0,19.8c0,1.22.56,1.76,1.82,1.77H26c1.25,0,1.8-.55,1.8-1.78,0-6.56,0-13.11,0-19.67,0-.67-.22-.79-.83-.79-7.69,0-15.38,0-23.07,0Zm26.83-.91V2.88c0-1.52-.47-2-2-2H2.59C1.69.88,1,1.29.94,2a25.14,25.14,0,0,0,0,2.61Z"/><path class="cls-1" d="M21.37,22.65,20.2,23.87a13.72,13.72,0,0,1,1.06.92c.17.17.39.51.33.64a1,1,0,0,1-.67.43,3.24,3.24,0,0,1-4-3.59,1.16,1.16,0,0,0-.39-1.09c-.78-.76-1.52-1.55-2.35-2.4l-.73,1,.21.27a1,1,0,0,1-.05,1.44c-1.14,1.15-2.28,2.3-3.46,3.42a2.83,2.83,0,0,1-3.09.6A2.92,2.92,0,0,1,5.1,23a3,3,0,0,1,1-2.52l2.82-2.83c1-1,1.18-1,2.26-.17l.79-.91c-.85-.84-1.72-1.72-2.63-2.56a1.07,1.07,0,0,0-.68-.09A3.3,3.3,0,0,1,4.9,10.05a3.63,3.63,0,0,1,.44-.85,3.77,3.77,0,0,1,.76.44,9.15,9.15,0,0,1,.84,1L8.11,9.43c-.38-.33-.77-.62-1.11-1-.5-.5-.39-.82.29-1a3.28,3.28,0,0,1,4.11,3.6,1.08,1.08,0,0,0,.37,1c.78.79,1.53,1.6,2.35,2.45,1.23-1.24,2.37-2.38,3.5-3.54a.79.79,0,0,0,.19-.49A1.74,1.74,0,0,1,19,8.9c.64-.34,1.26-.75,1.87-1.15a.59.59,0,0,1,.88.12l.47.47c1.36,1.38,1.26.93.32,2.54-.19.33-.43.63-.59,1A1.77,1.77,0,0,1,20.25,13a.73.73,0,0,0-.47.19c-1.15,1.11-2.27,2.24-3.44,3.39.92.93,1.78,1.82,2.69,2.67a1.14,1.14,0,0,0,.73.1,3.32,3.32,0,0,1,3.63,4.06c-.22.8-.52.9-1.08.32C22,23.44,21.71,23.06,21.37,22.65ZM12.67,19c.19-.17.34-.3.48-.44C15.09,16.66,17,14.69,19,12.78a4.59,4.59,0,0,1,1.24-.66c.21-.1.51-.13.62-.3.49-.7.91-1.45,1.35-2.16-1-1.11-1-1.11-2.13-.4-.12.07-.23.15-.35.21A1.64,1.64,0,0,0,18.61,11c0,.22-.23.47-.4.65-1.27,1.28-2.53,2.56-3.81,3.82-.88.86-1.78,1.71-2.73,2.62Zm-2.56-1.16c-1.24,1.19-2.56,2.35-3.74,3.63a2,2,0,0,0,.26,2.72,2,2,0,0,0,2.78.15C10.66,23.23,11.8,22,13,20.74ZM22.5,22.7a2.3,2.3,0,0,0-2.82-2.39,1.27,1.27,0,0,1-1.35-.43l-2.47-2.56-1.16.9c.88.84,1.66,1.63,2.48,2.37a1.71,1.71,0,0,1,.63,1.81,2.13,2.13,0,0,0,2.44,2.48,5,5,0,0,0-.74-.63c-.38-.3-.36-.62,0-.95s.72-.73,1.08-1.09c.68-.68.7-.68,1.37,0ZM8,8.32,8.82,9a.59.59,0,0,1,0,1c-.46.42-.9.86-1.33,1.31a.53.53,0,0,1-.9,0c-.24-.24-.5-.47-.79-.75A2.32,2.32,0,0,0,8.57,13a1.45,1.45,0,0,1,1.53.51c.79.85,1.62,1.68,2.47,2.57l1-1c-.83-.79-1.6-1.56-2.4-2.29a1.84,1.84,0,0,1-.68-1.86A2.26,2.26,0,0,0,8,8.32Z"/><path class="cls-1" d="M20.06,1.57c1,0,2.05,0,3.07,0a1.27,1.27,0,0,1,1.39,1.21A1.29,1.29,0,0,1,23.12,4H16.93A1.24,1.24,0,0,1,15.59,2.8a1.21,1.21,0,0,1,1.35-1.23C18,1.56,19,1.57,20.06,1.57Zm0,1.51c1,0,2,0,3,0,.19,0,.38-.19.57-.28-.18-.12-.36-.33-.54-.33q-3,0-6,0c-.18,0-.35.21-.53.33.19.09.38.27.57.28C18.06,3.1,19,3.08,20,3.08Z"/><path class="cls-1" d="M10.41,2.75a1.33,1.33,0,1,1-2.65,0,1.33,1.33,0,0,1,2.65,0Zm-.72.07c-.25-.21-.4-.43-.56-.44s-.32.21-.48.33c.14.16.26.41.43.46S9.41,3,9.69,2.82Z"/><path class="cls-1" d="M5.49,1.45A1.31,1.31,0,0,1,6.8,2.75,1.35,1.35,0,0,1,5.46,4.12,1.41,1.41,0,0,1,4.13,2.73,1.36,1.36,0,0,1,5.49,1.45Zm.59,1.27c-.28-.17-.46-.36-.61-.34s-.28.25-.42.39c.16.14.31.36.48.39S5.83,2.94,6.08,2.72Z"/><path class="cls-1" d="M10.62,19.51a5.2,5.2,0,0,1-.36.49c-.85.85-1.68,1.71-2.55,2.52-.17.15-.52.12-.79.17,0-.25,0-.57.15-.73.85-.9,1.73-1.77,2.63-2.63a1,1,0,0,1,.63-.19C10.41,19.14,10.5,19.36,10.62,19.51Z"/><path class="cls-1" d="M11.81,20.69a3.35,3.35,0,0,1-.32.44c-.86.87-1.7,1.76-2.6,2.59-.17.16-.52.11-.79.16.06-.26.05-.6.21-.77.83-.89,1.69-1.75,2.57-2.6a1.12,1.12,0,0,1,.64-.18C11.61,20.33,11.7,20.54,11.81,20.69Z"/></svg>