<svg xmlns="http://www.w3.org/2000/svg" width="577.9" height="660.9" viewBox="0 0 577.9 660.9"><defs><style>.cls-1,.cls-14{fill:#fff;}.cls-10,.cls-2,.cls-8,.cls-9{fill:none;}.cls-10,.cls-2,.cls-7,.cls-8,.cls-9{stroke:#956fff;}.cls-2{stroke-width:3.39px;stroke-dasharray:5.08;}.cls-15,.cls-17,.cls-2{opacity:0.4;}.cls-15,.cls-17,.cls-2,.cls-4,.cls-5{isolation:isolate;}.cls-3{fill:#5e709d;}.cls-12,.cls-4,.cls-7{fill:#956fff;}.cls-11,.cls-13,.cls-14,.cls-15,.cls-16,.cls-4,.cls-5{fill-rule:evenodd;}.cls-4,.cls-5{opacity:0.9;}.cls-11,.cls-5,.cls-6{fill:#d6c8ff;}.cls-7{stroke-width:0.83px;}.cls-8{stroke-width:4.01px;}.cls-9{stroke-width:4.41px;}.cls-10{stroke-width:3.66px;}.cls-13{fill:#f6f2ff;}.cls-15,.cls-16,.cls-17{fill:#8e75ff;}</style></defs><title>competences-init</title><g id="others"><rect class="cls-1" x="204.96" width="167.98" height="137.12" rx="8.8"/><rect class="cls-1" x="409.92" width="167.98" height="137.12" rx="8.8"/><rect class="cls-1" x="204.96" y="523.78" width="167.98" height="137.12" rx="8.8"/><rect class="cls-1" width="167.98" height="137.12" rx="8.8"/><rect class="cls-1" y="523.78" width="167.98" height="137.12" rx="8.8"/><rect class="cls-1" x="409.92" y="523.78" width="167.98" height="137.12" rx="8.8"/></g><g id="bm"><path id="bm-p" class="cls-2" d="M288.34,512V381"/><g id="bm-content"><path id="text-path" class="cls-3" d="M273.61,628.86a2.8,2.8,0,0,1-.36,1.39,2.7,2.7,0,0,1-1.09,1,3.74,3.74,0,0,1-1.82.41,4.46,4.46,0,0,1-1.87-.38,3.51,3.51,0,0,1-1.31-1.05,3,3,0,0,1-.55-1.53h1.45a2,2,0,0,0,1.05,1.59,2.46,2.46,0,0,0,1.19.27,1.87,1.87,0,0,0,1.38-.48,1.67,1.67,0,0,0,.48-1.23,1.57,1.57,0,0,0-.35-1,2.23,2.23,0,0,0-.82-.63,10.36,10.36,0,0,0-1.35-.51,15.54,15.54,0,0,1-1.62-.61,2.93,2.93,0,0,1-1-.89,2.58,2.58,0,0,1-.42-1.54,2.72,2.72,0,0,1,.39-1.46,2.65,2.65,0,0,1,1.14-1,4.19,4.19,0,0,1,1.76-.35,3.73,3.73,0,0,1,2.47.77,2.88,2.88,0,0,1,1.07,1.92h-1.47a2,2,0,0,0-.65-1.11,2,2,0,0,0-1.42-.48,1.93,1.93,0,0,0-1.32.43,1.49,1.49,0,0,0-.5,1.2,1.57,1.57,0,0,0,.32,1,2.45,2.45,0,0,0,.81.6q.48.21,1.32.48a12.79,12.79,0,0,1,1.63.63,2.74,2.74,0,0,1,1.07.91A2.69,2.69,0,0,1,273.61,628.86Zm5.57-5.6a4.35,4.35,0,0,1,2.12.51,3.59,3.59,0,0,1,1.47,1.47,5,5,0,0,1,0,4.5,3.63,3.63,0,0,1-1.47,1.46,4.35,4.35,0,0,1-2.12.51,4.41,4.41,0,0,1-2.13-.51,3.75,3.75,0,0,1-1.47-1.46,5,5,0,0,1,0-4.5,3.71,3.71,0,0,1,1.47-1.47A4.41,4.41,0,0,1,279.18,623.26Zm0,1.2a2.88,2.88,0,0,0-1.36.33,2.54,2.54,0,0,0-1,1,3.42,3.42,0,0,0-.37,1.68,3.48,3.48,0,0,0,.37,1.68,2.58,2.58,0,0,0,1,1,2.88,2.88,0,0,0,1.36.33,2.81,2.81,0,0,0,1.35-.33,2.46,2.46,0,0,0,1-1,3.37,3.37,0,0,0,.39-1.68,3.31,3.31,0,0,0-.39-1.68,2.42,2.42,0,0,0-1-1A2.81,2.81,0,0,0,279.18,624.46Zm9.55-1.2a4,4,0,0,1,2.61.84,3.56,3.56,0,0,1,1.28,2.25h-1.44a2.07,2.07,0,0,0-.83-1.38,2.62,2.62,0,0,0-1.65-.51,2.69,2.69,0,0,0-1.32.33,2.4,2.4,0,0,0-.94,1,3.54,3.54,0,0,0-.36,1.68,3.65,3.65,0,0,0,.36,1.7,2.4,2.4,0,0,0,.94,1,2.69,2.69,0,0,0,1.32.33,2.62,2.62,0,0,0,1.65-.51,2.12,2.12,0,0,0,.83-1.39h1.44a3.56,3.56,0,0,1-1.28,2.26,4.06,4.06,0,0,1-2.61.83,4.24,4.24,0,0,1-2.1-.51,3.68,3.68,0,0,1-1.44-1.46,5.22,5.22,0,0,1,0-4.5,3.64,3.64,0,0,1,1.44-1.47A4.24,4.24,0,0,1,288.73,623.26Zm5.43-2.31a.76.76,0,0,1,.26-.6.93.93,0,0,1,.67-.24,1,1,0,0,1,.68.24.76.76,0,0,1,.25.6.81.81,0,0,1-.25.62,1,1,0,0,1-.68.22,1,1,0,0,1-.67-.22A.82.82,0,0,1,294.16,621Zm1.61,2.42v8.23H294.4v-8.23Zm5.57-.11a3.33,3.33,0,0,1,2,.6,3.13,3.13,0,0,1,1.17,1.61v-2.1h1.37v8.23h-1.37v-2.1a3.13,3.13,0,0,1-1.17,1.61,3.33,3.33,0,0,1-2,.6,3.73,3.73,0,0,1-1.95-.51,3.6,3.6,0,0,1-1.35-1.46,5.51,5.51,0,0,1,0-4.5,3.57,3.57,0,0,1,1.35-1.47A3.73,3.73,0,0,1,301.34,623.26Zm.39,1.22a2.67,2.67,0,0,0-2,.81,3.07,3.07,0,0,0-.75,2.2,3.14,3.14,0,0,0,.75,2.22,2.7,2.7,0,0,0,2,.8,2.76,2.76,0,0,0,1.44-.38,2.6,2.6,0,0,0,1-1,3.69,3.69,0,0,0,0-3.18,2.48,2.48,0,0,0-1-1A2.76,2.76,0,0,0,301.73,624.48Zm7.7-4v11.1h-1.36V620.5Z"/><g id="img"><path class="cls-4" d="M310.81,572.92l-3.66-.32.47-5.35c.12-1.4-.37-2.4-1.63-2.51a1.84,1.84,0,0,0-1.86,1.11,2.28,2.28,0,0,0-.16.84l-.49,5.59-3.63-.32s.88-9.47.91-10.33l3.63.32-.14,1.62a3.31,3.31,0,0,1,3.37-1.44c2.3.2,4,1.84,3.7,5l-.51,5.75ZM297.2,560h0a1.8,1.8,0,0,1-1.77-2,2,2,0,1,1,1.8,2Zm-1.65,1.15,3.23.29-.9,10.33-3.23-.29.9-10.33Z"/><path class="cls-5" d="M301.26,580.59c-2.63-.23-3-.25-4-.29a6.8,6.8,0,0,0-2.38.24,5,5,0,0,0-3.08,2.58,7.37,7.37,0,0,0-.66,2.31c-.13,1-.18,1.36-.41,4s-.24,3-.29,4a7.07,7.07,0,0,0,.25,2.39,4.95,4.95,0,0,0,2.58,3.08,7,7,0,0,0,2.31.65c1,.14,1.36.18,4,.41s3,.25,4,.29A7.14,7.14,0,0,0,306,600a4.85,4.85,0,0,0,1.81-1,4.78,4.78,0,0,0,1.26-1.61,7.11,7.11,0,0,0,.66-2.31c.14-1,.18-1.36.4-4s.25-3,.3-4a7,7,0,0,0-.25-2.39,4.88,4.88,0,0,0-2.58-3.08,7.28,7.28,0,0,0-2.31-.66C304.21,580.86,303.88,580.82,301.26,580.59Zm-.16,1.74c2.59.23,2.89.26,3.91.4a5.32,5.32,0,0,1,1.77.49,3,3,0,0,1,1.05.82,3,3,0,0,1,.62,1.18,5.34,5.34,0,0,1,.18,1.82c-.05,1-.06,1.33-.29,3.92s-.26,2.89-.4,3.9a5.32,5.32,0,0,1-.49,1.77,2.91,2.91,0,0,1-.82,1,3.1,3.1,0,0,1-1.17.63,5.53,5.53,0,0,1-1.83.17c-1,0-1.33-.06-3.91-.28s-2.89-.26-3.91-.4a5.58,5.58,0,0,1-1.77-.49,3.12,3.12,0,0,1-1.05-.82,3.18,3.18,0,0,1-.62-1.18,5.38,5.38,0,0,1-.18-1.82c.05-1,.06-1.33.29-3.92s.26-2.89.4-3.91a5,5,0,0,1,.49-1.76,2.91,2.91,0,0,1,.82-1,3.1,3.1,0,0,1,1.17-.63,5.73,5.73,0,0,1,1.83-.18C298.21,582.09,298.52,582.1,301.1,582.33Zm-5.66,7.5a5,5,0,1,1,4.54,5.4A5,5,0,0,1,295.44,589.83Zm4.69,3.66a3.24,3.24,0,1,1,3.51-2.94A3.25,3.25,0,0,1,300.13,593.49Zm5.79-6.78a1.16,1.16,0,1,0-1.05-1.26A1.15,1.15,0,0,0,305.92,586.71Z"/><path class="cls-5" d="M268.94,574.34a.93.93,0,0,1-1-.82l-1.54-14.73a.91.91,0,0,1,.81-1l14.73-1.55a.91.91,0,0,1,1,.82l1.55,14.73a.91.91,0,0,1-.82,1l-4.22.44-.67-6.41,2.15-.23.06-2.53-2.47.26-.17-1.6c-.08-.72.07-1.23,1.11-1.34l1.32-.14-.23-2.24a19.1,19.1,0,0,0-1.94.11,3,3,0,0,0-2.87,3.64l.2,1.84-2.16.23.26,2.5,2.16-.23.67,6.42Z"/><path class="cls-4" d="M282,585.38a4.17,4.17,0,0,0,2-2.13,7.6,7.6,0,0,1-2.62.75,3.89,3.89,0,0,0-2.75-1.63,4.11,4.11,0,0,0-4.41,3.77,4.39,4.39,0,0,0,0,1,11.11,11.11,0,0,1-7.71-5.23,4.39,4.39,0,0,0-.76,2,4.28,4.28,0,0,0,1.4,3.67,4,4,0,0,1-1.75-.71v0a4.15,4.15,0,0,0,2.75,4.43,3.74,3.74,0,0,1-1.06,0,4.41,4.41,0,0,1-.74-.15,4,4,0,0,0,3.4,3.29,7.72,7.72,0,0,1-5.11,1.27,7.09,7.09,0,0,1-.94-.16,10.9,10.9,0,0,0,5.88,2.52c7.29.77,11.94-5.19,12.52-10.71,0-.18,0-.37.05-.54a8.23,8.23,0,0,0,2.2-2A7.62,7.62,0,0,1,282,585.38Z"/></g></g></g><g id="bl"><path id="bl-p" class="cls-2" d="M77.4,510.07c0-52,177.82-47.81,177.82-129.07"/><g id="bl-content"><path id="text-path-2" data-name="text-path" class="cls-3" d="M53.9,622.14v3.61h4v1h-4v3.69h4.47v1.11H52.54V621h5.83v1.11Zm16.35,1.09a3,3,0,0,1,2.31.93,3.68,3.68,0,0,1,.88,2.66v4.78H72.08v-4.66a2.63,2.63,0,0,0-.6-1.86,2.08,2.08,0,0,0-1.62-.65,2.25,2.25,0,0,0-1.74.72,3,3,0,0,0-.65,2.09v4.36H66.11v-4.66a2.63,2.63,0,0,0-.6-1.86,2.11,2.11,0,0,0-1.62-.65,2.28,2.28,0,0,0-1.76.72,3,3,0,0,0-.64,2.09v4.36H60.12v-8.23h1.37v1.87a2.63,2.63,0,0,1,1.06-1.48,3.14,3.14,0,0,1,1.79-.53,3.05,3.05,0,0,1,1.81.54,2.85,2.85,0,0,1,1.11,1.56,2.93,2.93,0,0,1,1.16-1.54A3.17,3.17,0,0,1,70.25,623.23Zm8.69,0a3.33,3.33,0,0,1,2,.6,3.13,3.13,0,0,1,1.17,1.61v-2.1H83.5v8.23H82.13v-2.1A3.13,3.13,0,0,1,81,631.11a3.33,3.33,0,0,1-2,.6,3.73,3.73,0,0,1-2-.51,3.6,3.6,0,0,1-1.35-1.46,5.51,5.51,0,0,1,0-4.5A3.57,3.57,0,0,1,77,623.77,3.73,3.73,0,0,1,78.94,623.26Zm.39,1.22a2.67,2.67,0,0,0-2,.81,3.07,3.07,0,0,0-.75,2.2,3.14,3.14,0,0,0,.75,2.22,2.7,2.7,0,0,0,2,.8,2.76,2.76,0,0,0,1.44-.38,2.6,2.6,0,0,0,1-1,3.69,3.69,0,0,0,0-3.18,2.48,2.48,0,0,0-1-1A2.76,2.76,0,0,0,79.33,624.48Zm6.1-3.53a.76.76,0,0,1,.25-.6,1,1,0,0,1,.68-.24.93.93,0,0,1,.67.24.76.76,0,0,1,.26.6.82.82,0,0,1-.26.62,1,1,0,0,1-.67.22,1,1,0,0,1-.68-.22A.81.81,0,0,1,85.43,621Zm1.6,2.42v8.23H85.67v-8.23Zm3.56-2.87v11.1H89.23V620.5Zm2,.45a.76.76,0,0,1,.25-.6,1,1,0,0,1,.68-.24.93.93,0,0,1,.67.24.76.76,0,0,1,.26.6.82.82,0,0,1-.26.62,1,1,0,0,1-.67.22,1,1,0,0,1-.68-.22A.81.81,0,0,1,92.55,621Zm1.6,2.42v8.23H92.79v-8.23Zm6.53-.14a3.07,3.07,0,0,1,2.33.93,3.68,3.68,0,0,1,.88,2.66v4.78h-1.36v-4.66a2.63,2.63,0,0,0-.63-1.89,2.25,2.25,0,0,0-1.71-.66,2.32,2.32,0,0,0-1.8.73,3,3,0,0,0-.68,2.12v4.36H96.35v-8.23h1.36v2a2.83,2.83,0,0,1,1.11-1.55A3.28,3.28,0,0,1,100.68,623.23Zm8.68,0a3.37,3.37,0,0,1,2,.6,3.13,3.13,0,0,1,1.17,1.61v-2.1h1.36v8.37a4.16,4.16,0,0,1-.48,2,3.45,3.45,0,0,1-1.35,1.38,4,4,0,0,1-2,.5,4.33,4.33,0,0,1-2.72-.81,3.5,3.5,0,0,1-1.33-2.16h1.35a2.32,2.32,0,0,0,.9,1.29,2.89,2.89,0,0,0,1.72.48,2.48,2.48,0,0,0,1.83-.72,2.62,2.62,0,0,0,.74-2V629.5a3.13,3.13,0,0,1-1.17,1.61,3.37,3.37,0,0,1-2,.6,3.73,3.73,0,0,1-2-.51,3.6,3.6,0,0,1-1.35-1.46,5.51,5.51,0,0,1,0-4.5,3.57,3.57,0,0,1,1.35-1.47A3.73,3.73,0,0,1,109.36,623.26Zm.39,1.22a2.64,2.64,0,0,0-2,.81,3.07,3.07,0,0,0-.75,2.2,3.14,3.14,0,0,0,.75,2.22,2.67,2.67,0,0,0,2,.8,2.76,2.76,0,0,0,1.44-.38,2.62,2.62,0,0,0,1-1,3.69,3.69,0,0,0,0-3.18,2.5,2.5,0,0,0-1-1A2.76,2.76,0,0,0,109.75,624.48Z"/><g id="img-2" data-name="img"><rect class="cls-6" x="58.56" y="559.21" width="50.86" height="36.98" rx="4.03"/><path class="cls-1" d="M63.91,565.7a1.28,1.28,0,0,1,1.34-1.21h37.47a1.28,1.28,0,0,1,1.34,1.21v24a1.28,1.28,0,0,1-1.34,1.2H65.25a1.28,1.28,0,0,1-1.34-1.2Z"/><path class="cls-7" d="M71.45,568.75,84,577l12.42-8.21c1.62-1.16,3.24,1.44,1.62,2.59l-13.36,8.79a1.42,1.42,0,0,1-1.49,0L70,571.34C68.35,570.19,69.83,567.59,71.45,568.75Z"/></g></g></g><g id="tl"><path id="tl-p" class="cls-2" d="M81.16,151.91c0,51.62,176.89,47.45,176.89,128.09"/><g id="tl-content"><path id="text-path-3" data-name="text-path" class="cls-3" d="M67.15,97.25l-2.68,10.58H62.8l-2.44-8.64-2.45,8.64H56.25l-2.7-10.58h1.51l2,9,2.5-9h1.52l2.5,9,2-9Zm9.17,6a4.06,4.06,0,0,1-.06.75H69.68a2.92,2.92,0,0,0,.8,2.12,2.62,2.62,0,0,0,1.86.7,2.71,2.71,0,0,0,1.65-.49,2.13,2.13,0,0,0,.82-1.35h1.45a3.41,3.41,0,0,1-.67,1.53,3.46,3.46,0,0,1-1.33,1,4.45,4.45,0,0,1-1.86.37,4.25,4.25,0,0,1-2.11-.51A3.72,3.72,0,0,1,68.85,106a5.31,5.31,0,0,1,0-4.5A3.71,3.71,0,0,1,70.29,100a4.25,4.25,0,0,1,2.11-.51,4.08,4.08,0,0,1,2.08.51,3.45,3.45,0,0,1,1.37,1.36A3.89,3.89,0,0,1,76.32,103.25Zm-1.37.09a2.8,2.8,0,0,0-.3-1.53,2.25,2.25,0,0,0-1-.91,2.86,2.86,0,0,0-1.3-.3,2.66,2.66,0,0,0-1.89.7,2.75,2.75,0,0,0-.83,2Zm7.71-3.85a3.73,3.73,0,0,1,2,.51,3.46,3.46,0,0,1,1.33,1.47,5.31,5.31,0,0,1,0,4.5,3.46,3.46,0,0,1-1.33,1.45,3.73,3.73,0,0,1-2,.51,3.42,3.42,0,0,1-2-.6,3.13,3.13,0,0,1-1.14-1.6v2.1H78.11V96.73h1.37v5a3.06,3.06,0,0,1,1.14-1.59A3.36,3.36,0,0,1,82.66,99.49Zm-.39,1.21a2.82,2.82,0,0,0-1.44.38,2.5,2.5,0,0,0-1,1,3.69,3.69,0,0,0,0,3.18,2.62,2.62,0,0,0,1,1,2.81,2.81,0,0,0,1.44.37,2.64,2.64,0,0,0,2-.79,3.11,3.11,0,0,0,.77-2.22,3.06,3.06,0,0,0-.77-2.21A2.61,2.61,0,0,0,82.27,100.7Zm8.53-1.21a3.26,3.26,0,0,1,2.23.73,3,3,0,0,1,1,2H92.76a1.84,1.84,0,0,0-.61-1.2,1.93,1.93,0,0,0-1.38-.48,1.73,1.73,0,0,0-1.16.36,1.18,1.18,0,0,0-.4,1,1,1,0,0,0,.27.73,2,2,0,0,0,.69.42q.42.14,1.14.3a9.9,9.9,0,0,1,1.47.44,2.2,2.2,0,0,1,1,.69,1.93,1.93,0,0,1,.4,1.29,2,2,0,0,1-.76,1.63,3,3,0,0,1-2,.63,3.86,3.86,0,0,1-2.4-.7,2.83,2.83,0,0,1-1.1-2h1.32a1.74,1.74,0,0,0,.65,1.22,2.38,2.38,0,0,0,1.53.46,1.54,1.54,0,0,0,1.09-.36,1.2,1.2,0,0,0,.41-.94,1,1,0,0,0-.29-.77,1.84,1.84,0,0,0-.7-.43,10.28,10.28,0,0,0-1.16-.32,11.68,11.68,0,0,1-1.47-.42,2.34,2.34,0,0,1-.93-.66A1.91,1.91,0,0,1,88,101.8a2.06,2.06,0,0,1,.76-1.67A3.15,3.15,0,0,1,90.8,99.49Zm4.93-2.31a.76.76,0,0,1,.25-.6,1,1,0,0,1,.68-.24.93.93,0,0,1,.67.24.76.76,0,0,1,.26.6.8.8,0,0,1-.26.61,1,1,0,0,1-.67.23,1,1,0,0,1-.68-.23A.79.79,0,0,1,95.73,97.18Zm1.6,2.41v8.24H96V99.59Zm6.13,7v1.2h-1a2.65,2.65,0,0,1-1.89-.6,2.73,2.73,0,0,1-.62-2v-4.44H98.7V99.59h1.23v-2h1.38v2h2.13v1.19h-2.13v4.47a1.58,1.58,0,0,0,.29,1.09,1.46,1.46,0,0,0,1,.29Zm9.24-3.38a4.06,4.06,0,0,1-.06.75h-6.59a2.92,2.92,0,0,0,.8,2.12,2.64,2.64,0,0,0,1.86.7,2.67,2.67,0,0,0,1.65-.49,2.09,2.09,0,0,0,.82-1.35h1.46a3.42,3.42,0,0,1-.68,1.53,3.39,3.39,0,0,1-1.33,1,4.45,4.45,0,0,1-1.86.37,4.24,4.24,0,0,1-2.1-.51,3.65,3.65,0,0,1-1.44-1.45,5.22,5.22,0,0,1,0-4.5,3.64,3.64,0,0,1,1.44-1.47,4.24,4.24,0,0,1,2.1-.51,4.08,4.08,0,0,1,2.08.51,3.45,3.45,0,0,1,1.37,1.36A3.79,3.79,0,0,1,112.7,103.25Zm-1.38.09a2.8,2.8,0,0,0-.3-1.53,2.19,2.19,0,0,0-1-.91,2.86,2.86,0,0,0-1.3-.3,2.68,2.68,0,0,0-1.89.7,2.79,2.79,0,0,0-.83,2Z"/><g id="img-3" data-name="img"><rect class="cls-6" x="58.56" y="33.89" width="50.86" height="44.23" rx="4.01"/><path class="cls-1" d="M63.21,44.94h41.55v27.3a1.35,1.35,0,0,1-1.34,1.35H64.55a1.35,1.35,0,0,1-1.34-1.35Z"/><path class="cls-8" d="M69.26,54.2H92"/><path class="cls-8" d="M69.26,61H84"/><path class="cls-1" d="M64.52,41.23a2,2,0,1,0-2-2A2,2,0,0,0,64.52,41.23Z"/><path class="cls-1" d="M70.46,41.23a2,2,0,1,0-2-2A2,2,0,0,0,70.46,41.23Z"/></g></g></g><g id="tm"><path id="tm-p" class="cls-2" d="M287.68,150V280"/><g id="tm-content"><path id="text-path-4" data-name="text-path" class="cls-3" d="M275.37,97.43v10.4H274v-8.3l-3.31,8.3h-1.22l-3.33-8.27v8.27h-1.36V97.43h1.63l3.69,8.73,3.63-8.73Zm5.91,2.06a4.35,4.35,0,0,1,2.12.51,3.59,3.59,0,0,1,1.47,1.47,5,5,0,0,1,0,4.5,3.6,3.6,0,0,1-1.47,1.45,4.35,4.35,0,0,1-2.12.51,4.41,4.41,0,0,1-2.13-.51,3.73,3.73,0,0,1-1.47-1.45,5,5,0,0,1,0-4.5,3.71,3.71,0,0,1,1.47-1.47A4.41,4.41,0,0,1,281.28,99.49Zm0,1.2a2.88,2.88,0,0,0-1.36.33,2.54,2.54,0,0,0-1,1,3.42,3.42,0,0,0-.37,1.68,3.48,3.48,0,0,0,.37,1.68,2.55,2.55,0,0,0,1,1,2.88,2.88,0,0,0,1.36.33,2.81,2.81,0,0,0,1.35-.33,2.43,2.43,0,0,0,1-1,3.37,3.37,0,0,0,.39-1.68,3.31,3.31,0,0,0-.39-1.68,2.42,2.42,0,0,0-1-1A2.81,2.81,0,0,0,281.28,100.69Zm10.45-1.2a3.73,3.73,0,0,1,1.95.51,3.48,3.48,0,0,1,1.34,1.47,5.41,5.41,0,0,1,0,4.5,3.49,3.49,0,0,1-1.34,1.45,3.73,3.73,0,0,1-1.95.51,3.42,3.42,0,0,1-2-.6,3.13,3.13,0,0,1-1.14-1.6v2.1h-1.36V96.73h1.36v5a3.06,3.06,0,0,1,1.14-1.59A3.36,3.36,0,0,1,291.73,99.49Zm-.39,1.21a2.82,2.82,0,0,0-1.44.38,2.48,2.48,0,0,0-1,1,3.69,3.69,0,0,0,0,3.18,2.6,2.6,0,0,0,1,1,2.81,2.81,0,0,0,1.44.37,2.66,2.66,0,0,0,2-.79,3.1,3.1,0,0,0,.76-2.22,3.06,3.06,0,0,0-.76-2.21A2.64,2.64,0,0,0,291.34,100.7Zm5.71-3.52a.76.76,0,0,1,.26-.6,1.07,1.07,0,0,1,1.35,0,.76.76,0,0,1,.26.6.8.8,0,0,1-.26.61,1.11,1.11,0,0,1-1.35,0A.8.8,0,0,1,297.05,97.18Zm1.61,2.41v8.24H297.3V99.59Zm3.56-2.86v11.1h-1.36V96.73Zm9.77,6.52a4.06,4.06,0,0,1-.06.75h-6.59a2.92,2.92,0,0,0,.8,2.12,2.64,2.64,0,0,0,1.86.7,2.67,2.67,0,0,0,1.65-.49,2.09,2.09,0,0,0,.82-1.35h1.46a3.42,3.42,0,0,1-.68,1.53,3.39,3.39,0,0,1-1.33,1,4.45,4.45,0,0,1-1.86.37,4.24,4.24,0,0,1-2.1-.51,3.65,3.65,0,0,1-1.44-1.45,5.22,5.22,0,0,1,0-4.5A3.64,3.64,0,0,1,306,100a4.24,4.24,0,0,1,2.1-.51,4.08,4.08,0,0,1,2.08.51,3.45,3.45,0,0,1,1.37,1.36A3.79,3.79,0,0,1,312,103.25Zm-1.38.09a2.8,2.8,0,0,0-.3-1.53,2.19,2.19,0,0,0-.95-.91,2.86,2.86,0,0,0-1.3-.3,2.68,2.68,0,0,0-1.89.7,2.79,2.79,0,0,0-.83,2Z"/><g id="img-4" data-name="img"><rect class="cls-6" x="272.77" y="29.27" width="32.36" height="49.3" rx="4.41"/><path class="cls-1" d="M277.18,66.62h23.54V36.74a1.48,1.48,0,0,0-1.47-1.49h-20.6a1.48,1.48,0,0,0-1.47,1.49Z"/><path class="cls-9" d="M280.13,42.72h14.7"/><path class="cls-9" d="M280.13,50.19H289"/><path class="cls-1" d="M289,75.59a3,3,0,1,0-2.94-3A3,3,0,0,0,289,75.59Z"/></g></g></g><g id="tr"><path id="tr-p" class="cls-2" d="M494.84,152c0,51.58-176.7,47.42-176.7,128"/><g id="tr-content"><path id="text-path-5" data-name="text-path" class="cls-3" d="M482.61,97.25l-2.69,10.58h-1.66l-2.44-8.64-2.45,8.64h-1.66L469,97.25h1.51l2,9,2.51-9h1.52l2.5,9,2-9Zm5,2.24a3.33,3.33,0,0,1,2,.6,3.1,3.1,0,0,1,1.17,1.6v-2.1h1.37v8.24h-1.37v-2.1a3.1,3.1,0,0,1-1.17,1.6,3.33,3.33,0,0,1-2,.6,3.71,3.71,0,0,1-1.95-.51,3.6,3.6,0,0,1-1.36-1.45,5.51,5.51,0,0,1,0-4.5,3.59,3.59,0,0,1,1.36-1.47A3.71,3.71,0,0,1,487.59,99.49Zm.38,1.21a2.66,2.66,0,0,0-2,.81,3.1,3.1,0,0,0-.75,2.21,3.14,3.14,0,0,0,.75,2.22,2.68,2.68,0,0,0,2,.79,2.73,2.73,0,0,0,1.44-.37,2.62,2.62,0,0,0,1-1,3.69,3.69,0,0,0,0-3.18,2.5,2.5,0,0,0-1-1A2.74,2.74,0,0,0,488,100.7Zm10.28,5.93v1.2h-1a2.65,2.65,0,0,1-1.89-.6,2.73,2.73,0,0,1-.62-2v-4.44h-1.23V99.59h1.23v-2h1.38v2h2.13v1.19H496.1v4.47a1.58,1.58,0,0,0,.29,1.09,1.46,1.46,0,0,0,1,.29Zm5.31-7.14a4,4,0,0,1,2.61.84,3.55,3.55,0,0,1,1.27,2.25H506a2.06,2.06,0,0,0-.82-1.38,2.62,2.62,0,0,0-1.65-.51,2.69,2.69,0,0,0-1.32.33,2.42,2.42,0,0,0-.95,1,3.54,3.54,0,0,0-.36,1.68,3.61,3.61,0,0,0,.36,1.69,2.45,2.45,0,0,0,.95,1,2.69,2.69,0,0,0,1.32.33,2.62,2.62,0,0,0,1.65-.51,2.13,2.13,0,0,0,.82-1.4h1.44a3.57,3.57,0,0,1-1.27,2.27,4.05,4.05,0,0,1-2.61.82,4.24,4.24,0,0,1-2.1-.51A3.65,3.65,0,0,1,500,106a5.22,5.22,0,0,1,0-4.5,3.64,3.64,0,0,1,1.44-1.47A4.24,4.24,0,0,1,503.56,99.49Zm10,0a3.07,3.07,0,0,1,2.33.93,3.66,3.66,0,0,1,.88,2.65v4.79h-1.36v-4.67a2.63,2.63,0,0,0-.63-1.89,2.25,2.25,0,0,0-1.71-.66,2.33,2.33,0,0,0-1.8.74,3,3,0,0,0-.68,2.11v4.37h-1.36V96.73h1.36v4.81A2.81,2.81,0,0,1,511.7,100,3.28,3.28,0,0,1,513.56,99.46Z"/><g id="img-5" data-name="img"><path class="cls-6" d="M508.35,51.07h-4.83V44.84h4.83A1.59,1.59,0,0,1,510,46.4v3.12A1.58,1.58,0,0,1,508.35,51.07Z"/><path class="cls-6" d="M481.73,42.42h21a1.6,1.6,0,0,0,1.37-.75,1.5,1.5,0,0,0,.07-1.52,20.15,20.15,0,0,1-2.28-9.32,1.59,1.59,0,0,0-1.61-1.56H484.18a1.59,1.59,0,0,0-1.61,1.56,20.23,20.23,0,0,1-2.28,9.33,1.51,1.51,0,0,0,.07,1.52A1.62,1.62,0,0,0,481.73,42.42Z"/><path class="cls-6" d="M502.74,66h-21a1.65,1.65,0,0,0-1.38.74,1.5,1.5,0,0,0-.06,1.52,20.18,20.18,0,0,1,2.28,9.32,1.59,1.59,0,0,0,1.61,1.56h16.11a1.59,1.59,0,0,0,1.61-1.56,20.18,20.18,0,0,1,2.28-9.32,1.51,1.51,0,0,0-.07-1.52A1.62,1.62,0,0,0,502.74,66Z"/><path class="cls-6" d="M500.29,69.76H484.18a6.35,6.35,0,0,1-6.45-6.23V44.84a6.34,6.34,0,0,1,6.45-6.22h16.11a6.34,6.34,0,0,1,6.45,6.22V63.53A6.35,6.35,0,0,1,500.29,69.76Z"/><path class="cls-1" d="M484.18,41.73A3.18,3.18,0,0,0,481,44.84V63.53a3.17,3.17,0,0,0,3.23,3.11h16.11a3.17,3.17,0,0,0,3.23-3.11V44.84a3.18,3.18,0,0,0-3.23-3.11Z"/><path class="cls-10" d="M485.17,49.33H498.8"/><path class="cls-10" d="M485.17,55.4h6.2"/></g></g></g><g id="br"><path id="br-p" class="cls-2" d="M498,510c0-52-178.91-47.79-178.91-129"/><g id="br-content"><path id="text-path-6" data-name="text-path" class="cls-3" d="M485.53,621l3.22,9.06L492,621h1.49l-3.89,10.57H487.9L484,621Zm15,10.57-2.76-4.32h-1.49v4.32h-1.36V621h3.48a3.75,3.75,0,0,1,2.7.87,3.35,3.35,0,0,1,.18,4.36,3.4,3.4,0,0,1-2.09,1L502,631.6Zm-4.25-5.31h2c1.55,0,2.32-.68,2.32-2s-.77-2-2.32-2h-2Z"/><g id="img-6" data-name="img"><path class="cls-11" d="M499.85,596.76h7.48a7.55,7.55,0,0,0,7.47-7.64V577.65a7.56,7.56,0,0,0-7.47-7.65H477.41a7.56,7.56,0,0,0-7.48,7.65v11.47a7.56,7.56,0,0,0,7.48,7.64h7.48a5.36,5.36,0,0,0,4.47-2.44l1.66-2.55a1.65,1.65,0,0,1,2.7,0l1.66,2.55A5.36,5.36,0,0,0,499.85,596.76Zm-3-7.11a5.3,5.3,0,0,0-8.94,0l-1.66,2.54a1.61,1.61,0,0,1-1.35.75h-7.48a3.78,3.78,0,0,1-3.74-3.82V577.65a3.79,3.79,0,0,1,3.74-3.83h29.92a3.79,3.79,0,0,1,3.74,3.83v11.47a3.78,3.78,0,0,1-3.74,3.82h-7.48a1.59,1.59,0,0,1-1.35-.75Z"/><rect class="cls-12" x="488.38" y="575.9" width="8.97" height="2.97" rx="1.49"/><rect class="cls-6" x="466.94" y="578.92" width="4.49" height="7.43" rx="1.49"/><rect class="cls-6" x="513.31" y="578.92" width="4.49" height="7.43" rx="1.49"/></g></g></g><g id="center"><g id="bg-int-ext"><path class="cls-13" d="M288.18,412.14a84.77,84.77,0,1,0-84.76-84.77A84.77,84.77,0,0,0,288.18,412.14Z"/></g><g id="bg-int-path"><path class="cls-14" d="M288.18,389a61.63,61.63,0,1,0-61.64-61.62A61.63,61.63,0,0,0,288.18,389Z"/></g><g id="center-icon"><path class="cls-15" d="M276.16,311.19v14.19H263.05a.44.44,0,0,1-.32-.75Z"/><path class="cls-15" d="M291.54,353.44a.44.44,0,0,1-.75-.31V340H305Z"/><path class="cls-16" d="M304.09,311.19H276.16v14.19h13.75a.88.88,0,0,1,.88.88V340H305V312.07A.88.88,0,0,0,304.09,311.19Z"/><path class="cls-17" d="M276.16,325.38h14.19a.44.44,0,0,1,.44.44V340H277.05a.89.89,0,0,1-.89-.88Z"/></g></g></svg>