<svg id="Layer_1" data-name="Layer 1" xmlns="http://www.w3.org/2000/svg" width="20.95" height="20.95" viewBox="0 0 20.95 20.95"><defs><style>.cls-1{fill:#8e8e00;stroke:#fff;stroke-miterlimit:10;stroke-width:0.25px;}.cls-2{fill:#fff;}</style></defs><title>beginner</title><path class="cls-1" d="M10.48.13A10.37,10.37,0,0,1,20.83,10.58,10.46,10.46,0,0,1,10.44,20.83,10.45,10.45,0,0,1,.13,10.32,10.38,10.38,0,0,1,10.48.13ZM3.77,12.6l3,3a1.65,1.65,0,0,0,2.33,0l8.1-8.06a1.64,1.64,0,0,0,0-2.33l0-.06a1.66,1.66,0,0,0-2.35,0L9.09,10.93a1.65,1.65,0,0,1-2.35,0l-.61-.63a1.66,1.66,0,0,0-2.38,0h0A1.65,1.65,0,0,0,3.77,12.6Z"/><path class="cls-2" d="M3.75,10.28h0a1.66,1.66,0,0,1,2.38,0l.61.63a1.65,1.65,0,0,0,2.35,0l5.75-5.76a1.66,1.66,0,0,1,2.35,0l0,.06a1.64,1.64,0,0,1,0,2.33l-8.1,8.06a1.65,1.65,0,0,1-2.33,0l-3-3A1.65,1.65,0,0,1,3.75,10.28Z"/></svg>