<svg id="Layer_1" data-name="Layer 1" xmlns="http://www.w3.org/2000/svg" width="12.75" height="21.11" viewBox="0 0 12.75 21.11"><defs><style>.cls-1{fill:#fff;}</style></defs><title>chess</title><path class="cls-1" d="M0,8.51V8a3.17,3.17,0,0,0,.12-.66.77.77,0,0,1,.3-.66C1.3,5.93,2.17,5.17,3,4.4a1.78,1.78,0,0,0,.38-.53,1.08,1.08,0,0,1,.66-.63l1.28-.5L5.17,2c.35-.09.64-.21,1-.26s.34-.17.34-.41c0-.45,0-.89,0-1.37A4.66,4.66,0,0,1,7.75,1.5.53.53,0,0,0,8,1.76a5.77,5.77,0,0,1,4.21,4.11c.2.77.33,1.56.5,2.35v.29c0,.27,0,.53-.07.8-.1.62-.16,1.26-.32,1.86-.32,1.14-.71,2.25-1,3.38a4.9,4.9,0,0,0-.24,2.34c0,.21.09.42.14.67H3.94c-.68,0-.68,0-.89-.64a.78.78,0,0,1,0-.14,4.29,4.29,0,0,1,.59-3.54C4.33,12.09,5.2,11,6,9.91c.31-.4.69-.76,1.07-1.18a3.25,3.25,0,0,1-2.44-.18,1,1,0,0,0-1.37.38,1.47,1.47,0,0,1-.91.62,2.31,2.31,0,0,1-2.2-.82Z"/><path class="cls-1" d="M2.64,21.11a1.92,1.92,0,0,1-.2-.55c0-.71,0-1.42,0-2.12,0-.44.11-.55.53-.55h8.57c.43,0,.54.1.54.54,0,.72,0,1.44,0,2.16a1.72,1.72,0,0,1-.19.52Z"/></svg>