<svg id="Layer_1_copy" data-name="Layer 1 copy" xmlns="http://www.w3.org/2000/svg" width="30" height="29.96" viewBox="0 0 30 29.96"><defs><style>.cls-1{fill:#cf1119;}</style></defs><title>database</title><path class="cls-1" d="M0,4.26A16.24,16.24,0,0,0,2.19,5c1.72.32,3.45.62,5.19.82a70,70,0,0,0,9.27.33,54.28,54.28,0,0,0,10.49-1c.95-.2,1.87-.54,2.83-.83a2.5,2.5,0,0,1,0,.33c0,2.09,0,4.18,0,6.27a.94.94,0,0,1-.6,1,18.71,18.71,0,0,1-2.43.81,40.53,40.53,0,0,1-7.61.88c-2.4.08-4.81.11-7.21.06a44.9,44.9,0,0,1-9.6-1.06,13.33,13.33,0,0,1-1.92-.69,1,1,0,0,1-.6-1c0-2.08,0-4.15,0-6.23Z"/><path class="cls-1" d="M0,13c.77.23,1.51.48,2.27.65A38.6,38.6,0,0,0,8,14.5a79.36,79.36,0,0,0,9.38.25A52.6,52.6,0,0,0,28,13.62c.34-.08.67-.17,1-.28s.65-.23,1-.36v.35c0,2,0,4,0,6.07a1.05,1.05,0,0,1-.65,1.06,10.06,10.06,0,0,1-2.84.87,59.32,59.32,0,0,1-10.73.89A74.79,74.79,0,0,1,6,21.73a21.35,21.35,0,0,1-4.67-1L1,20.61a1.32,1.32,0,0,1-1-1.46c.06-1.94,0-3.89,0-5.84Z"/><path class="cls-1" d="M0,21.54a16.9,16.9,0,0,0,4.82,1.17c2.09.25,4.2.47,6.31.55,2.48.09,5,.08,7.47,0a44.69,44.69,0,0,0,9.5-1.13c.62-.15,1.21-.37,1.85-.57v1.91c0,1.24,0,2.49,0,3.73a.91.91,0,0,1-.59,1,17.86,17.86,0,0,1-2.53.84,40.29,40.29,0,0,1-7.82.88c-2.73.06-5.47.07-8.21,0a37.31,37.31,0,0,1-8.79-1.14,9.24,9.24,0,0,1-1.57-.64A.8.8,0,0,1,0,27.3c0-1.8,0-3.6,0-5.4Z"/><path class="cls-1" d="M14.84,0A73.85,73.85,0,0,1,24.7.61a18.61,18.61,0,0,1,3.91.88,4.28,4.28,0,0,1,1,.49c.47.32.48.72,0,1a5.4,5.4,0,0,1-1.26.6A21.75,21.75,0,0,1,24,4.49,76.07,76.07,0,0,1,12.21,5,47.68,47.68,0,0,1,2.53,3.88,12,12,0,0,1,.7,3.25C.37,3.12,0,2.92,0,2.52s.37-.65.71-.77A23.07,23.07,0,0,1,3.62.89,62.3,62.3,0,0,1,14.84,0Z"/></svg>