<svg id="Layer_1" data-name="Layer 1" xmlns="http://www.w3.org/2000/svg" width="25.59" height="25.58" viewBox="0 0 25.59 25.58"><defs><style>.cls-1{fill:#cf2028;}</style></defs><title>design</title><path class="cls-1" d="M7.21,12.77A1,1,0,0,1,7,12.62L.61,6.39A1.5,1.5,0,0,1,.6,4L4,.62a1.5,1.5,0,0,1,2.32,0L12.58,7a2.8,2.8,0,0,1,.22.25l.14-.11L18,2c.4-.41.79-.84,1.2-1.25a2.17,2.17,0,0,1,3.19,0c.85.83,1.69,1.67,2.53,2.52a2.19,2.19,0,0,1,0,3.19c-.41.41-.84.79-1.25,1.2l-3.06,3.1-1.95,1.94-.2.23a1.46,1.46,0,0,1,.27.2l6.22,6.21a1.5,1.5,0,0,1,0,2.39L21.57,25a1.49,1.49,0,0,1-2.33,0l-6.15-6.27-.25-.28-.25.23L8.43,22.86A1.1,1.1,0,0,1,8,23.1l-6.7,2.19a.78.78,0,0,1-.87-.17.76.76,0,0,1-.14-.84c.73-2.23,1.46-4.47,2.18-6.7A.89.89,0,0,1,3,17a.64.64,0,0,0,.19-.13l4-4A.81.81,0,0,0,7.21,12.77Zm1-6.08L9.72,8.22,7.26,10.67l1,1.06,3.45-3.46-6.6-6.6L1.62,5.15l1,1.12,1-1L5.15,6.74l-1,.88,1.5,1.59ZM18.1,21.58l2.41-2.43L22,20.62l-2.49,2.49.94.88,3.49-3.49L17.4,14,14,17.44l1,1,.91-1L17.41,19l-1,1ZM20.9,8.19l-1-1-13,13,1,1ZM5.31,18.63l13-13-.85-.86-13,13.05ZM22.23,6.89c.54-.53,1.11-1.06,1.66-1.62a.64.64,0,0,0,0-.95C23,3.44,22.14,2.56,21.25,1.7a.62.62,0,0,0-.92,0c-.57.55-1.1,1.12-1.63,1.67ZM3.55,19.18s0,0,0,.07c-.38,1.17-.77,2.33-1.14,3.5a.53.53,0,0,0,.1.35.27.27,0,0,0,.37.11l3.42-1.12L6.4,22Z"/></svg>