<svg id="Layer_1" data-name="Layer 1" xmlns="http://www.w3.org/2000/svg" width="21.11" height="21.11" viewBox="0 0 21.11 21.11"><defs><style>.cls-1{fill:#fff;}</style></defs><title>geopolitic</title><path class="cls-1" d="M10.56,21.11A10.56,10.56,0,1,1,21.11,10.54,10.58,10.58,0,0,1,10.56,21.11ZM3,5.18a9.12,9.12,0,0,0-1.71,4.91H4.77l.67-3.67Zm16.75,4.91a9.16,9.16,0,0,0-1.73-4.91L15.67,6.42l.67,3.67ZM5.41,14.7,4.77,11H1.32a9.22,9.22,0,0,0,1.73,4.91Zm12.66,1.24A9.27,9.27,0,0,0,19.79,11H16.35L15.7,14.7Zm-8-4.91H5.67l.59,3.3,3.83-.67ZM11,13.66l3.84.67.58-3.3H11ZM5.67,10.09h4.42V7.45L6.28,6.79Zm9.16-3.3L11,7.45v2.63h4.42Zm-4.76,13V14.57l-3.41.61A10.88,10.88,0,0,0,10.07,19.83Zm.95-.08.13.07a12,12,0,0,0,3.34-4.64L11,14.57ZM6.69,6l3.38.57V1.32A11.47,11.47,0,0,0,6.69,6ZM11,6.54,14.44,6A12.15,12.15,0,0,0,11,1.27ZM17.5,4.46a9.22,9.22,0,0,0-4.62-2.85l2.53,3.93ZM5.7,5.54,8.24,1.61A9.17,9.17,0,0,0,3.62,4.46ZM8.12,19.46,5.67,15.59l-2,1.05A8.82,8.82,0,0,0,8.12,19.46Zm4.86,0a9.24,9.24,0,0,0,4.52-2.83l-2.06-1.06Z"/></svg>