<svg id="Layer_1" data-name="Layer 1" xmlns="http://www.w3.org/2000/svg" width="17.92" height="21.11" viewBox="0 0 17.92 21.11"><defs><style>.cls-1{fill:#fff;}</style></defs><title>history</title><path class="cls-1" d="M17.92,21.11H0c0-.23,0-.46,0-.69A.82.82,0,0,1,1,19.51h.68c0-.8-.15-1.7,1.05-1.64,0-.41.07-.77.1-1.12A7.09,7.09,0,0,1,5,12.06c.35-.32.73-.63,1.07-1a.66.66,0,0,0,0-1.06c-.25-.25-.53-.49-.8-.72A6.44,6.44,0,0,1,3,5.66c-.16-.79-.24-1.59-.36-2.42-1.19,0-1-.87-1-1.64H.94A.81.81,0,0,1,0,.74C0,.5,0,.25,0,0H17.92c0,.23,0,.47,0,.7,0,.63-.31.89-.94.9h-.65a3.07,3.07,0,0,1-.14,1.15c-.17.28-.58.43-1,.69,0,.2,0,.55-.08.89a7,7,0,0,1-2.52,5,10.27,10.27,0,0,0-.78.68.61.61,0,0,0,0,1c.29.29.6.55.91.81a6.43,6.43,0,0,1,2.22,3.81c.13.71.21,1.44.32,2.2,1.22-.06.95.9,1,1.63h.68c.63,0,.91.27.94.9C17.9,20.65,17.91,20.88,17.92,21.11ZM5.76,17.86A4.83,4.83,0,0,1,7,14.65c.27-.32.54-.65.83-1a3,3,0,0,0,.72-3A5.65,5.65,0,0,0,7.1,8.25a8.46,8.46,0,0,1-.6-.91h5a9.9,9.9,0,0,1-.49.89c-.34.45-.76.84-1.07,1.3a3.23,3.23,0,0,0,.25,4.25c.13.13.24.29.37.42a5.37,5.37,0,0,1,1.63,3.49.58.58,0,0,0,.06.17H13.9A6.31,6.31,0,0,0,12,13c-.37-.33-.77-.64-1.12-1a1.89,1.89,0,0,1,0-2.82c.35-.34.74-.64,1.1-1a6.33,6.33,0,0,0,1.9-4.92H4A6.33,6.33,0,0,0,6,8.23c.34.3.7.58,1,.9A1.9,1.9,0,0,1,7,12c-.34.34-.72.65-1.08,1A6.34,6.34,0,0,0,4,17.86Z"/></svg>