<svg id="Layer_1" data-name="Layer 1" xmlns="http://www.w3.org/2000/svg" width="20" height="20.96" viewBox="0 0 20 20.96"><defs><style>.cls-1{fill:#000;}</style></defs><title>home</title><path class="cls-1" d="M8.42,21H4.12A1.49,1.49,0,0,1,2.5,19.34V11.15c-.6,0-1.17,0-1.74,0A.47.47,0,0,1,.35,11a1.49,1.49,0,0,1,.11-2c1.2-1.21,2.41-2.41,3.61-3.61L8.85.53a1.5,1.5,0,0,1,2.3,0L19.51,8.9a1.48,1.48,0,0,1,.1,2.1.59.59,0,0,1-.33.15H17.5v8.2A1.49,1.49,0,0,1,15.89,21H11.58V15.32a.94.94,0,0,0-1.07-1.06H9.4a.91.91,0,0,0-1,1V21Z"/></svg>