<svg id="Layer_1" data-name="Layer 1" xmlns="http://www.w3.org/2000/svg" width="24.63" height="21.11" viewBox="0 0 24.63 21.11"><defs><style>.cls-1{fill:#fff;}</style></defs><title>literature</title><path class="cls-1" d="M0,18.65V18l0-.13a2.76,2.76,0,0,1,1.72-2.1c.24-.1.49-.16.74-.24a2.83,2.83,0,0,1,.75-4.69l-.16,0A2.72,2.72,0,0,1,.7,8.88a2.67,2.67,0,0,1,.77-2.94,1.76,1.76,0,0,0,.24-.3C2.86,3.83,4,2,5.16.2A.35.35,0,0,1,5.48,0h14a.43.43,0,0,1,.3.14q1.92,2.33,3.83,4.67c.05.06.12.13.12.2,0,.54,0,1.07,0,1.64H22.11l.12.24c.44.81.87,1.63,1.3,2.44a1,1,0,0,1,.1.41c0,.28,0,.56,0,.86h1v1.25h-.89V15h.89v1.25H23.11l0,.54H21.82v3.11c.37,0,.72,0,1.07,0,.07,0,.19.07.19.1,0,.38,0,.75,0,1.14H2.7A2.64,2.64,0,0,1,.45,19.8,7.62,7.62,0,0,1,0,18.65Zm22.46-6.8H4.24a1.55,1.55,0,0,0-1.38,1.93A1.6,1.6,0,0,0,4.53,15c5.89,0,11.77,0,17.66,0h.27Zm-1.92,4.91H2.7a1.55,1.55,0,0,0-1.45,1.59A1.59,1.59,0,0,0,3,19.87c5.77,0,11.54,0,17.31,0h.27Zm.62-10.11H2.84a.61.61,0,0,0-.34.06,1.42,1.42,0,0,0-.69,1.41A1.53,1.53,0,0,0,3.47,9.55H20.91l.25,0Z"/></svg>