<svg id="Layer_1" data-name="Layer 1" xmlns="http://www.w3.org/2000/svg" width="18.19" height="21.11" viewBox="0 0 18.19 21.11"><defs><style>.cls-1{fill:#fff;}</style></defs><title>manga</title><path class="cls-1" d="M10.52,17.62a2.05,2.05,0,0,1-2.8,0,1.39,1.39,0,0,0,0,.31c.32,1.76-1.14,2.29-2.18,3.1a.7.7,0,0,1-.36.06H.66c-.44,0-.66-.17-.66-.63A70,70,0,0,1,.63,8.81,11.86,11.86,0,0,1,3.76,2.24,7.49,7.49,0,0,1,15.11,3a13.14,13.14,0,0,1,2.64,7.08c.24,3.36.31,6.73.43,10.09,0,.88,0,.93-.93.93H13.1c-.11,0-.24,0-.31,0-.56-.38-1.1-.79-1.64-1.18a1.9,1.9,0,0,1-.63-1.82C10.53,18,10.52,17.87,10.52,17.62Zm-.38-9L4.7,8.93,5,5.12C4.71,5.8,4.42,6.36,4.21,7a9.38,9.38,0,0,0,.35,6.29A4,4,0,0,0,5.46,15a32.13,32.13,0,0,0,3.1,2.14,1,1,0,0,0,1.1,0c1-.68,2.06-1.38,3.07-2.09a1.14,1.14,0,0,0,.36-.45A13.31,13.31,0,0,0,14.37,9.8c.05-.58-.14-.81-.71-.79a3.19,3.19,0,0,1-.68-.1,6.55,6.55,0,0,0-.9-2.82c0,.74,0,1.46-.05,2.19,0,.27,0,.56-.48.52S11,8.7,11,8.25a4.68,4.68,0,0,0-.11-1,9.11,9.11,0,0,0-1-2.83Z"/><path class="cls-1" d="M6.43,13a.78.78,0,0,1-1-.78,5,5,0,0,1,0-1.55c.09-.4.49-.57.92-.59a1,1,0,0,1,1,.47,2.14,2.14,0,0,1-.18,2.26C7,13,6.7,13,6.43,13Zm.46-2c-.31-.22-.52-.48-.66-.44s-.32.32-.48.5c.17.14.33.39.51.4S6.6,11.24,6.89,11Z"/><path class="cls-1" d="M11.76,13c-.84-.07-1-.2-1.16-1.22a2.26,2.26,0,0,1,.3-1.35,1.11,1.11,0,0,1,1.85.25,2.15,2.15,0,0,1-.24,2.08C12.4,13,12,13,11.76,13Zm.4-1.94c-.29-.25-.47-.51-.64-.51a.68.68,0,0,0-.46.43.63.63,0,0,0,.41.47C11.64,11.51,11.85,11.28,12.16,11.09Z"/><path class="cls-1" d="M9.1,14.43a2.49,2.49,0,0,1,.43.05.53.53,0,0,1,.5.67.65.65,0,0,1-.61.67A1.28,1.28,0,0,1,8.19,15C8.09,14.57,8.3,14.41,9.1,14.43Z"/></svg>