<svg id="Layer_1" data-name="Layer 1" xmlns="http://www.w3.org/2000/svg" width="23.62" height="19.98" viewBox="0 0 23.62 19.98"><defs><style>.cls-1{fill:#666;}</style></defs><title>menu-close</title><path class="cls-1" d="M1,18.79.36,18c-.65-1.94-.47-2.66,1-3.77L18.58.83C20-.28,20.75-.28,22.47.83l.62.79c.68,2,.53,2.75-.94,3.9L5,18.85C3.51,20,2.74,20,1,18.79Z"/><path class="cls-1" d="M22.65,19.08l.62-.79c.64-1.94.46-2.67-1-3.77L5,1.11C3.62,0,2.87,0,1.15,1.12L.54,1.9c-.69,2-.53,2.76.94,3.9L18.65,19.13C20.11,20.27,20.88,20.26,22.65,19.08Z"/></svg>