<svg id="Layer_1" data-name="Layer 1" xmlns="http://www.w3.org/2000/svg" width="34.04" height="50" viewBox="0 0 34.04 50"><defs><style>.cls-1,.cls-2{fill:#52575f;}.cls-2{stroke:#52575f;stroke-miterlimit:10;}</style></defs><title>passion</title><path class="cls-1" d="M15.33,50a39.24,39.24,0,0,1-4.17-1.08,17,17,0,0,1-8-25.87,86.62,86.62,0,0,0,4.87-7.69c2.48-4.5,2-9-.31-13.48C7.42,1.27,7.15.63,6.86,0c5.91,1.29,10.39,4.48,12.8,10.11a50,50,0,0,1,1.81,6.47,16.22,16.22,0,0,1,7.88,4.79c4.48,5,5.89,10.85,3.63,17.23S26.05,48.74,19.29,49.81a3.67,3.67,0,0,0-.62.19ZM10.24,2.86c.17.56.25.8.33,1A14.38,14.38,0,0,1,9.8,15.75c-1.57,2.89-3.39,5.65-5.21,8.39a15.69,15.69,0,0,0-2.81,8,15.25,15.25,0,0,0,30,4.75,15.43,15.43,0,0,0-5.25-15.77,16.48,16.48,0,0,0-7.11-3.18C19.43,11.08,16.49,6.14,10.24,2.86Z"/><path class="cls-2" d="M10.24,2.86c6.25,3.28,9.19,8.22,9.14,15.05a16.48,16.48,0,0,1,7.11,3.18,15.43,15.43,0,0,1,5.25,15.77,15.25,15.25,0,0,1-30-4.75,15.69,15.69,0,0,1,2.81-8c1.82-2.74,3.64-5.5,5.21-8.39A14.38,14.38,0,0,0,10.57,3.9C10.49,3.66,10.41,3.42,10.24,2.86Zm6.7,27.32A8.11,8.11,0,1,0,17,46.4a8.11,8.11,0,1,0-.1-16.22Z"/><path class="cls-2" d="M10.67,38.2a6.33,6.33,0,0,1,12.66.17,6.33,6.33,0,1,1-12.66-.17Z"/></svg>