<svg id="Layer_1" data-name="Layer 1" xmlns="http://www.w3.org/2000/svg" width="20" height="20.09" viewBox="0 0 20 20.09"><defs><style>.cls-1{fill:#000;}</style></defs><title>phone</title><path class="cls-1" d="M0,5.36c.4-1.47,1.59-2.29,2.64-3.2A1,1,0,0,1,4,2.22c1,.95,2,1.92,2.93,2.93a1.11,1.11,0,0,1,0,1.55c-.45.53-.93,1-1.43,1.53a.66.66,0,0,0-.14.93,14.52,14.52,0,0,0,5.53,5.55.65.65,0,0,0,.95-.14c.44-.48.93-.91,1.42-1.35a1.23,1.23,0,0,1,1.8,0c.91.88,1.8,1.77,2.68,2.69a1.26,1.26,0,0,1,0,1.77,19.82,19.82,0,0,1-1.91,1.87,5.07,5.07,0,0,1-1.37.57h-.62a16.66,16.66,0,0,1-2.11-.52A19.55,19.55,0,0,1,1.6,10.74,13.36,13.36,0,0,1,0,6.43Z"/><path class="cls-1" d="M10.54,0a24.89,24.89,0,0,1,2.7.85A11.26,11.26,0,0,1,19.91,9,2.5,2.5,0,0,0,20,9.2v.18a6,6,0,0,0-.95.21c-.43.15-.57,0-.66-.41a9.64,9.64,0,0,0-1.87-3.94,9.9,9.9,0,0,0-5.9-3.62l-.48-.11L10.36,0Z"/><path class="cls-1" d="M9.94,5.53,10.14,4a6.92,6.92,0,0,1,5.29,4,8.94,8.94,0,0,1,.44,1.26c.09.26.05.45-.3.48s-.7.11-1.11.17A5.66,5.66,0,0,0,12.9,7,5.78,5.78,0,0,0,9.94,5.53Z"/></svg>