<svg id="Layer_1" data-name="Layer 1" xmlns="http://www.w3.org/2000/svg" width="27.33" height="27.33" viewBox="0 0 27.33 27.33"><defs><style>.cls-1{fill:#cf2027;}</style></defs><title>project-gestion</title><path class="cls-1" d="M19.78,3.55c1.44-.24,2.4.41,2.43,1.73.05,2.13,0,4.27,0,6.4a1.06,1.06,0,0,1-.07.22H20.59V8.54h-19c0,.23,0,.47,0,.7,0,3.51,0,7,0,10.53,0,.6.13.8.77.79,2.91,0,5.82,0,8.73,0h.76v1.67H2.14C.69,22.22,0,21.55,0,20.12V5.39a1.79,1.79,0,0,1,1.91-2c.35,0,.55.1.53.49a3.08,3.08,0,0,0,0,.53A1.73,1.73,0,0,0,4.25,6.05,1.78,1.78,0,0,0,6,4.37c.11-1,.11-1,1.06-1,2.79,0,5.59,0,8.39,0,.55,0,.8.1.79.73A1.69,1.69,0,0,0,17.94,6a1.8,1.8,0,0,0,1.81-1.89C19.76,3.93,19.77,3.73,19.78,3.55Z"/><path class="cls-1" d="M20.51,27.33a6.8,6.8,0,1,1,6.82-6.7A6.73,6.73,0,0,1,20.51,27.33Zm.12-11.95a5.18,5.18,0,0,0-.25,10.36,5.28,5.28,0,0,0,5.37-5.07A5.2,5.2,0,0,0,20.63,15.38Z"/><path class="cls-1" d="M6.75,10.33v3.22H3.45V10.33Z"/><path class="cls-1" d="M11.89,13.55H8.62V10.32h3.27Z"/><path class="cls-1" d="M3.45,15.48H6.74v3.24H3.45Z"/><path class="cls-1" d="M8.62,15.48h3.27v3.23H8.62Z"/><path class="cls-1" d="M17,13.55H13.79V10.32H17Z"/><path class="cls-1" d="M3.4,2.51c0-.55,0-1.11,0-1.66S3.66,0,4.22,0A.77.77,0,0,1,5,.86c0,1.08,0,2.17,0,3.25a.82.82,0,0,1-.79.9.78.78,0,0,1-.84-.84c0-.55,0-1.11,0-1.66Z"/><path class="cls-1" d="M18.78,2.51c0,.53,0,1.06,0,1.59a.81.81,0,0,1-.84.91c-.53,0-.76-.38-.76-.9,0-1.08,0-2.17,0-3.25,0-.51.22-.86.78-.86s.81.38.82.92S18.78,2,18.78,2.51Z"/><path class="cls-1" d="M20.51,20.56h2.3c.69,0,1.05.31,1.05.84s-.36.81-1.06.82c-1,0-1.91,0-2.87,0-.73,0-1-.27-1.06-1,0-1.07,0-2.13,0-3.2,0-.5.24-.86.81-.86s.81.37.82.91C20.51,18.88,20.51,19.68,20.51,20.56Z"/></svg>