<svg id="Layer_1" data-name="Layer 1" xmlns="http://www.w3.org/2000/svg" width="27.6" height="26.34" viewBox="0 0 27.6 26.34"><defs><style>.cls-1{fill:#cf2027;}</style></defs><title>versioning</title><path class="cls-1" d="M10.8,13.16V1c0-.95.09-1,1-1H26.56c1,0,1,.09,1,1V25.35c0,.89-.1,1-1,1H11.81c-.91,0-1-.1-1-1Z"/><path class="cls-1" d="M9.57,2.4V23.94c-1.41,0-2.78,0-4.15,0-.21,0-.44-.34-.6-.56s0-.3,0-.45V3.44c0-1,.08-1,1-1Z"/><path class="cls-1" d="M3.57,4.8V21.53c-1,0-2,0-3,0-.5,0-.58-.39-.58-.81V5.8c0-.9.1-1,1-1Z"/></svg>